<?xml version="1.0" encoding="UTF-8"?>
<svg id="Layer_1" data-name="Layer 1" xmlns="http://www.w3.org/2000/svg" viewBox="0 0 1127.49 508.45">
  <g>
    <path d="M926.23,372.31c-1.49-.49-2-1.38-2.59-2.22-1.02-1.43-1.96-2.86-2.94-4.29,.56-.44,1.51-.85,1.63-1.32,.68-2.75,3.09-5.18,4.11-7.86,1.04-2.7,2.17-5.39,3.34-8.07,.66-1.52,1.46-3.02,2.18-4.52,1.2-2.5,1.69-5.08,2.5-7.61,1.41-4.44,3.04-8.87,3.93-13.36,.85-4.3,2.22-8.55,2.62-12.89,.22-2.36,.31-4.79,1.46-7.12,.21-.43,.1-.92,.13-1.38,.42-7.29,1.04-14.59,1.21-21.89,.16-6.75-.1-13.5-.29-20.24-.11-4.07-.36-8.13-.69-12.19-.64-7.85-1.28-15.69-2.11-23.53-.56-5.35-1.45-10.68-2.19-16.02-.44-3.23-.85-6.45-1.3-9.67-.52-3.68-1.07-7.36-1.6-11.04,.07-.52,.15-1.03,.22-1.55,.14-.56-.02-1.06-.78-1.45-.02-1.1-.05-2.22-.07-3.32-.47-2.55-1.05-5.08-1.37-7.64-.73-5.85-1.33-11.69-1.99-17.53,.53-1.21,1.11-2.42-.48-3.53-.02-1.1-.04-2.21-.07-3.31,1.56,.7,2.03,1.79,2.84,2.76,.27,.32,.4,.69,.68,1,.48,.53,1.53,.57,2.42,.27,1.36-.46,1.54-1.63,3.34-1.8,.7,5.77,1.38,11.55,2.12,17.33,.4,3.11,.92,6.22,1.43,9.33,.1,.63,.43,1.25,.65,1.84,1.2,.07,1.45-.43,1.77-.79,2.03-2.29,3.99-4.6,6.02-6.89,.72-.82,1.59-1.59,2.39-2.38,1.38-.3,1.48-.99,1.51-1.71,2.07-1.97,4.07-3.96,6.21-5.89,7.4-6.71,15.6-13.04,25.81-18.45,4.27-2.27,8.82-4.25,14.13-5.59,2.47-.62,5.08-1.14,7.71-1.46,4.55-.54,8.79,.02,12.82,1.43,6.53,2.31,10.53,5.78,14.22,9.49,4.02,4.04,4.63,8.38,3.69,12.87-.17,.81-.73,1.6-1.28,2.37-2.59,3.58-6.94,6.44-12.08,8.77-6.26,2.84-13.01,5.32-20.37,7.18-12.03,3.04-24.44,5.39-37.35,6.74-6.9,.72-13.92,1.07-20.89,1.58-2.82,.21-3.3,.46-3.38,2.04-.03,.65-.01,1.3,.08,1.94,.88,6.53,1.76,13.06,2.69,19.58,.59,4.13,1.39,8.26,1.86,12.4,.55,4.88,.55,9.78,1.34,14.65,.79,4.88,.29,9.78,1.4,14.64,.12,.54,.45,1.06,.69,1.59-.27,.07-.72,.1-.8,.22-.62,.92-.81,1.89-1.83,2.78-1.3,1.14-.41,1.93,2.32,2.57-.08,8.78-.07,17.54-.28,26.32-.08,3.13-.72,6.25-1.09,9.38-.07,.55-.13,1.1-.08,1.66,.33,3.88-1.2,7.72-1.02,11.6-1.5,2.55-.15,5.36-2.08,7.88,.32,2.23-1.09,4.36-1.21,6.58-.1,1.92-.51,3.87-1.18,5.75-.81,2.25-1.48,4.52-2.12,6.77-.99,3.54-2.9,6.97-3.54,10.54-.03,.18-.05,.38-.15,.54-2.22,3.74-2.64,7.74-5.31,11.43-.9,1.25-1.33,2.65-1.84,3.98-1.03,2.73-3.21,5.21-4.46,7.89-.5,1.06-1.03,2.15-2.64,2.89l-.02-.02Z" style="fill: #819a49;"/>
    <path d="M943.1,163.85c-1.79,.24-1.97,1.86-3.34,2.5-.89,.42-1.94,.35-2.42-.38-.29-.44-.42-.94-.68-1.39-.8-1.34-1.27-2.84-2.84-3.82-1.51-3.34-2.76-6.77-4.58-10.01-3.62-6.45-5.86-13.24-8.31-19.97-3.03-8.33-5.5-16.77-7.38-25.34-1.97-8.99-2.62-18-2.43-27.1,.11-5.43,1.45-10.67,3.53-15.78,2.13-5.22,6.01-9.57,11.67-12.75,2.48-1.39,5.24-2.3,8.31-2.76,3.48-.53,6.94-.75,10.46-.66,5.61,.15,11.09,.74,16.23,2.74,1.85,.72,3.84,1.2,5.75,1.83,9.76,3.24,15.83,9.22,19.83,16.77,1.82,3.44,2.92,7.01,2.53,10.82-.16,1.52,0,3.07,0,4.6-.01,4.61-.86,9.14-2.36,13.58-.87,2.58-1.8,5.15-2.66,7.73-.58,1.74-1.43,3.35-2.46,4.96-1.15,1.79-2.03,3.73-2.62,5.68-.99,3.27-2.76,6.25-4.62,9.22-1.21,1.95-2.02,4.09-3.54,5.86-3.35,3.89-5.24,8.43-8.98,12.16-2.27,2.27-3.99,4.92-6.25,7.25-3.02,3.12-5.96,6.3-8.97,9.43-1.46,1.52-3.08,2.95-3.87,4.8h0Z" style="fill: #c6c242;"/>
    <path d="M953.21,306.54c-2.73-.89-3.62-1.99-2.32-3.56,1.02-1.23,1.21-2.57,1.83-3.85,.08-.16,.53-.21,.8-.3,3.96-4,7.76-8.13,11.95-11.99,2.82-2.59,5.42-5.34,8.64-7.69,2.46-1.79,4.64-3.87,7.01-5.76,7.7-6.19,16.09-11.7,25.11-16.57,4.63-2.5,9.54-4.65,14.84-6.21,4.91-1.43,9.96-1.88,15.1-1.54,4.27,.29,8.03,1.75,11.03,4.2,3.14,2.57,5.54,5.52,7.4,8.86,3.39,6.08,3.99,12.43,3,18.8-.58,3.76-2.86,7.23-6.19,10.18-7.13,6.32-16.38,9.7-26.22,12.11-4.83,1.18-9.78,2.25-14.9,2.57-1.09,.06-2.12,.52-3.21,.7-3.45,.54-6.92,.96-10.46,.88-2.38-.06-4.75,.31-7.11,.48-6.04,.42-12.15,.46-18.19-.14-1.74-.17-3.48-.3-5.22-.39-4.3-.23-8.6-.52-12.89-.78v-.02Z" style="fill: #948e7c;"/>
  </g>
  <g>
    <path d="M129.8,418.09c-1.7,.18-3.4,.55-5.12,.01-1.38-.43-2.79-.16-4.18,.03-.13-2.78-1.28-5.29-2.33-7.76-2.34-5.52-3.25-11.36-4.05-17.21-.81-5.86-1.2-11.77-1.93-17.65-1.76-14.29-3.23-28.61-4.54-42.94-1.25-13.7-1.71-27.45-2.45-41.17-.53-9.74-.91-19.48-1.38-29.22-.05-.94-.3-1.87-.42-2.63-1.01-1.13-2.21-.99-3.28-.94-7.69,.35-15.31-.5-22.92-1.37-1.73-.2-3.43-.72-5.14-1.08-5.45-1.12-10.83-2.49-16.12-4.25-3.51-1.16-6.93-2.57-10.01-4.53-4.02-2.55-7.81-5.41-10.56-9.5-2.96-4.4-3.28-9.3-3.08-14.26,.27-6.69,3.52-12.2,7.87-17.04,2.15-2.39,4.88-3.76,8.28-4.29,5.64-.88,10.44,1.1,15.05,3.62,8.21,4.49,14.88,10.86,21,17.9,5.15,5.92,10.06,11.98,14.45,18.49,.95,1.41,1.82,2.98,3.26,3.85,1.17-.42,1.23-1.26,1.2-2.02-.07-1.92-.24-3.83-.35-5.74-.43-7.66-.91-15.31-1.25-22.97-.12-2.7-.9-4.86-2.96-6.75-2.7-2.48-5.11-5.26-7.67-7.9-2.12-2.18-4.08-4.48-5.94-6.89-4.1-5.31-7.96-10.79-11.37-16.54-3.08-5.19-5.93-10.53-8.27-16.14-2.87-6.86-4.46-13.93-5.02-21.31-.25-3.24,.06-6.28,.96-9.44,.99-3.47,2.37-6.64,4.76-9.26,3.9-4.27,8.22-8,13.95-9.71,3.96-1.18,7.82-2.7,12-2.99,4.63-.32,8.75,.68,12.52,3.7,2.54,2.04,4.62,4.38,6.54,6.92,.66,.88,1.22,1.9,1.58,2.94,1,2.85,2.15,5.69,2.74,8.63,1.32,6.58,2.27,13.22,1.78,19.97-.06,.79-.05,1.6,.02,2.39,.58,6.09,.11,12.09-1.17,18.07-.33,1.53,.14,3.22-.15,4.77-1.24,6.59-1.39,13.39-3.42,19.81-1.86,5.92-1.99,11.93-1.62,18.01,.61,10.21,1.25,20.42,1.83,30.63,.1,1.77,.3,3.5,.85,5.18,.28,1.73-1.31,2.69-1.74,4.16-.52,1.76-.25,3.01,1.42,3.87-.03,9.25,.64,18.47,1.1,27.71,.35,7.16,.64,14.33,1.04,21.5,.23,4.14,.71,8.26,.95,12.4,.86,14.82,2.08,29.61,4.01,44.32,1.75,13.27,3.45,26.56,6.49,39.63,.76,3.26,1.36,6.55,2.17,9.79,.43,1.72,.55,3.45,.66,5.2h-.04Z" style="fill: #819a49;"/>
    <path d="M113.38,257.55c-1.67-.85-1.93-2.11-1.42-3.87,.43-1.47,2.02-2.43,1.74-4.16,1.7-4.13,3.27-8.32,5.15-12.37,.94-2.03,1.17-4.24,2.34-6.23,4.99-8.54,9.34-17.47,15.58-25.22,4.63-5.74,9.68-10.91,16.66-13.99,5.24-2.32,10.18-1.72,14.49,1.29,7.09,4.95,11.5,11.89,12.41,20.69,.58,5.67-1.21,10.66-4.75,15.1-4.65,5.84-10.46,10.2-16.92,13.85-12.25,6.92-25.41,11.13-39.21,13.52-2.04,.35-4.04,.91-6.06,1.38h-.01Z" style="fill: #e22a2a;"/>
  </g>
  <g>
    <path d="M229.06,253.63c1.13-.53-.92,2.95-1.16,2.06-.49-1.87-3.53-3.1-4.03-4.96-.63-2.33-1.35-4.63-1.88-6.99-.79-3.52-1.46-7.08-2.18-10.62-.17-.83-.36-1.65-.62-2.45-.73-2.29-1.81-4.46-1.47-7.05,.06-.47-.23-.94-.38-1.39-1.73-5.15-2.83-10.47-3.71-15.88-.46-2.87-1.67-5.58-1.89-8.5-.34-4.68-2.51-8.79-2.94-13.42-.04-.47-.42-.87-.65-1.29-.14-.97-.66-1.74-1.54-2.32,1.33-1.66,.91-3.22,.58-4.75-1.06-5.09-2.53-10.08-3.21-15.26-.38-2.89-1.63-5.52-1.61-8.55,.02-1.92-.92-3.75-1.67-5.52-.75-1.74-2.77-2.61-4.65-3.36-6.96-2.81-13.3-6.31-19-10.36-4.52-3.21-9.21-6.36-12.88-10.32-1.59-1.72-3.5-3.25-5.25-4.88-3.08-2.87-5.2-6.27-7.67-9.47-.96-1.25-1.51-2.76-2.07-4.22-1.04-2.71-2.04-5.42-2.9-8.19-2.43-7.76,.04-15.16,7.53-22.12,1.66-1.54,3.25-3.32,5.27-4.38,4.31-2.25,8.14-5.28,13.05-6.62,1.69-.46,3.33-1.15,4.97-1.77,6.43-2.47,12.08-1.83,17,.68,3.98,2.04,7.16,4.89,8.71,8.6,2.98,7.12,6.07,14.23,7.24,21.98,.22,1.44,.34,2.9,.39,4.38,.2,7.11,.78,14.13,.31,21.36-.43,6.61-1.21,13.21-2.17,19.84-.22,1.51-.21,2.96,.31,4.36,1.79,4.87,3.01,9.96,3.76,15.11,.47,3.25,1.74,6.26,1.85,9.6,.03,1.15,.49,2.28,1.21,3.18,1.29-.38,1.34-1.05,1.59-1.66,1.54-3.71,2.35-7.47,3.84-11.21,3.8-9.48,8.49-18.77,14.69-27.71,3.17-4.57,7.08-8.85,11.75-12.67,3.63-2.97,8.1-4.56,12.55-5.43,3.51-.69,7.13-.06,9.99,1.32,4.03,1.95,7.71,4.25,10.26,7.52,4.43,5.7,4.62,11.92,.12,19.01-4.2,6.61-10.12,12.03-17.17,16.86-4.61,3.16-9.14,6.43-14.11,9.14-5.25,2.86-10.47,5.78-16.13,8.09-4.73,1.92-9.42,3.91-14.19,5.75-.42,.16-.79,.46-1.1,.64-.61,.89-.17,1.54-.01,2.23,.53,2.45,1.81,4.72,1.01,7.51-.19,.68,.34,1.39,.55,2.08,.81,2.77,1.72,5.47,2.06,8.42,.33,2.86,1.16,5.67,1.84,8.48,.85,3.52,1.99,6.95,1.95,10.7,0,.72,.34,1.4,.56,2.09,1.13,3.31,2.29,6.59,2.74,10.12,.28,2.15,1.33,4.13,1.92,6.22,.94,3.37,1.78,6.77,2.65,10.16,4.03,15.83,6.96,25.19,12.78,40.31,2.42,6.3,4.98,12.56,7.48,18.84,.18,.45,.23,1.03,.62,1.29,2.06,1.38,2.46,3.63,3.48,5.51,2.29,4.26,4.79,8.44,6.47,12.98,.41,1.14,.92,2.2,1.95,3.05,.98,.81,1.45,1.96,2.14,2.96,2.77,4.02,5.69,7.94,8.56,11.9,.16,.57,.69,1.22,.42,1.7-1.53,2.81-1.3,5.67-2.4,8.48-.14,.35-.5,.68-.76,1.02-2.31-2.3-4.84-4.45-5.9-7.48-4.34-4.82-7.12-10.48-10.91-15.6-.51-.69-1.08-1.37-1.37-2.16-1.27-3.53-3.52-6.61-5.12-9.99-1.43-3.03-3.56-5.79-4.76-8.94-2.35-6.19-5.66-12-7.84-18.26-3.62-10.36-7.68-20.57-10.77-31.12-.23-.8-.38-1.66-1.53-2.13-1.47-.19-2.89,.71-4.33,1.27-7.29,2.87-14.58,5.73-22.05,8.09-10.73,3.4-21.6,5.35-32.51,6.16-3.08,.23-6.23,.23-9.14-.15-2.9-.39-5.55-1.39-8.31-2.14-5.02-1.36-7.89-4.21-9.18-8.42-1-3.26-1.98-6.47-1.31-10.06,.64-3.37,1.38-6.75,3.65-9.97,1.8-2.55,4.24-4.42,7.54-5.75,6.26-2.53,12.32-3.49,18.76-2.98,8.77,.7,16.95,2.39,24.83,4.74,5.44,1.62,10.75,3.45,15.85,5.55,1.76,.74,3.5,1.51,5.21,2.31,.2,.09,13.93,3.09,13.9,3.31" style="fill: #819a49;"/>
    <path d="M206.63,180.83c.88,.58,1.4,1.35,1.54,2.32-9.27,3.19-18.74,5.26-28.23,6.66-10.41,1.53-20.81,2.34-30.93,1.63-3.59-.25-7.17-.65-10.56-1.36-6.24-1.31-11.26-3.93-14.68-8.31-2.01-2.58-2.5-5.5-2.22-8.61,.45-4.91,2.15-9.78,5.41-14.42,1.93-2.76,4.42-5.12,8.31-6.17,1.07-.29,2.14-.69,3.16-1.14,3.71-1.64,7.37-1.74,11-1.38,3.13,.31,6.06,1.02,8.94,1.86,8.1,2.36,15.41,5.66,22.24,9.62,3.9,2.26,7.52,4.77,11.24,7.18,1.32,.85,2.29,2.01,3.5,2.96,2.33,1.81,4.65,3.63,7.12,5.32,1.64,1.12,2.94,2.44,4.18,3.84h-.01Z" style="fill: #c6c242;"/>
  </g>
  <g>
    <path d="M829.47,29.59c8.54,1.74,16.62,4.76,23.78,9.72,6.17,4.28,11.92,9.18,15.37,16.12,1.42,2.85,3.18,5.55,4.02,8.68,.2,.74,.74,1.4,1.13,2.09,5.64,10.01,11.43,19.94,16.89,30.05,4.63,8.57,8.96,17.31,13.29,26.04,3.62,7.3,7.15,14.65,10.51,22.07,3.1,6.83,5.98,13.76,8.84,20.71,3.09,7.53,6.29,15.03,8.98,22.7,3.23,9.18,6.75,18.25,9.98,27.43,2.8,7.95,5.29,16.02,8.18,23.94,.76,2.09,1.28,4.27,1.96,6.39,2.69,8.34,5.38,16.68,8.11,25,1.04,3.19,2.17,6.34,3.27,9.51,2.35,6.78,4.67,13.58,7.09,20.34,1.07,3,2.36,5.93,3.54,8.89,.97,2.48,1.92,4.97,2.94,7.43,.6,1.44,1.1,2.98,2.59,3.83,.19,2.08,.74,4.03,1.55,5.98,4.64,11.21,9.88,22.14,15,33.13,3.17,6.79,6.26,13.62,9.12,20.54,1.45,3.52,2.37,7.28,3.41,10.96,.42,1.5,.92,3.1-.13,4.8-4.33,2.04-9.24,1.38-13.89,2.1-4.87,.75-9.81,1.23-14.77,1.37-4.74,.13-9.56-.49-13.94,.6-1.33,1.51-.95,2.83-.31,3.9,1.84,3.05,2.47,6.56,3.93,9.75,.8,1.74,.36,3.11-1.17,4.17-.77,.53-1.67,1.04-2.58,1.19-3.47,.57-6.61,2.28-10.16,2.7-2.15,.25-4.19,1.46-6.29,2.19-5.88,2.03-11.82,3.81-17.89,5.22-3.24,.75-6.46,1.58-9.69,2.37-4.05,.99-8.17,1.58-12.26,2.04-4.73,.53-9.56,.5-14.34-.06,1.22-2.61,2.98-4.86,4.96-6.9,3.28-3.37,4.85-7.78,7.27-11.67,.24-.38,.3-.92,.3-1.38-.02-1.49,.48-2.82,1.15-4.1,.53-1.01,.69-2.09,.76-3.23,.53-9.54-1.81-18.25-7.1-26.25-2.34-3.53-5.58-6.12-8.37-9.17-3.6-3.94-8.18-6.54-12.74-9.11-2.49-1.4-5.2-2.41-7.84-3.52-7.26-3.04-14.84-4.64-22.69-5.01-.95-.04-1.99,.08-2.85-.25-2.18-.82-4.41-.54-6.63-.69-2.28-.16-4.42,.78-6.6,.82-3.68,.08-7.31,.46-10.9,1.11-3.27,.59-6.67,1.03-9.71,2.28-6.71,2.77-13.81,4.88-19.37,9.94-.46,.42-1.1,.65-1.69,.89-1.21,.51-2.14,1.36-3.05,2.28-1.57,1.59-3.24,3.09-4.74,4.75-4.05,4.48-8.3,8.85-9.29,15.21-.05,.31-.15,.66-.34,.88-1.94,2.21-1.7,5.11-2.19,7.69-.49,2.61-.49,5.51,.14,8.08,1.29,5.24,2.91,10.43,5.43,15.27,.89,1.71,1.88,3.3,3.28,4.67,.98,.97,2.37,1.72,2.42,3.39,0,2.24,.03,4.48,0,6.71-.04,3-1.42,5.1-4.15,6.44-3.64,1.78-7.4,2.91-11.5,2.85-5.59-.08-11.19-.09-16.56,1.84-2.09,.75-4.15,1.57-6.27,2.22-5.21,1.59-10.59,2.37-15.95,3.19-2.69,.41-5.35,.84-8.01,1.42-2.64,.58-5.33,.98-8.02,1.28-4.44,.49-8.89,.9-13.34,1.23-6.67,.5-13.35,.77-20.01,1.39-8.3,.76-16.61,.43-24.92,.63-6.89,.16-13.72-.63-20.53-1.26-7.47-.69-14.48-3.02-21.19-6.86-6.71-3.85-11.78-9.22-16.93-14.65-5.18-5.46-9.57-11.53-13.07-17.76-1.57-.98-2.88-.76-4.08-.41-7.81,2.29-15.83,3.81-23.59,6.16-6.12,1.85-12.36,3.21-18.43,5.14-5.18,1.65-10.56,2.3-15.75,3.76-4.75,1.34-9.6,2.15-14.41,3.15-7.81,1.63-15.66,2.86-23.59,3.68-5.54,.57-11.04,1.55-16.56,2.27-6.17,.81-12.33,1.54-18.57,1.78-6.04,.24-12.06,.95-18.09,1.44-.95,.08-1.91,.14-2.87,.17-12.13,.38-24.26,.87-36.39,1.1-14.38,.27-28.73,1.27-43.12,1.01-2.37-.04-4.76,.27-6.88-.28-1.2-1.3-.86-2.64-.86-3.87-.03-6.86-1.67-13.28-5.26-19.13-1.91-3.12-4.05-6.1-6.11-9.12-.66-.97-1.53-1.65-2.83-1.33-.37-2.13,.93-3.96,1.03-6.07,.31-7.06-2.33-13.06-6.16-18.69-.89-1.31-1.85-2.61-3-3.68-4.68-4.38-10.35-7.23-15.98-10.15-2.44-1.26-5.1-1.79-7.67-2.56-4.27-1.28-8.64-2.16-13.12-2.06-5.24,.11-10.53-.6-15.69,.91-3.3-.4-6.25,.81-9.22,2-1.77,.71-3.62,1.22-5.42,1.85-.9,.32-1.86,.59-2.63,1.11-4.87,3.27-9.98,6.14-14.06,10.58-4.88,5.31-7.24,11.48-7.9,18.46-.51,5.43,1.22,10.4,3.6,15.11,2.02,4,4.56,7.61,8.61,9.99,1.42,.83,2.98,1.96,3.07,4-.35,.31-.68,.86-1.04,.88-3.55,.19-6.83,1.5-10.24,2.26-3.73,.82-7.57,1.11-11.31,1.85-6.77,1.33-13.66,1.13-20.46,1.92-14.03,1.63-28.11,.94-42.17,.9-7.64-.02-15.29-.54-22.89-1.55-2.99-.4-6.03-.55-9.04-.83-7.72-.74-14.97-3.08-22.13-5.75-6.31-2.35-10.62-6.97-13.17-13.16-1.32-3.19-1.25-6.63-.62-9.92,.46-2.4,.52-4.75,.5-7.14-.03-4.49,.38-8.86,1.88-13.19,1.67-4.82,2.79-9.82,4.63-14.61,4.93-12.79,10.37-25.37,16-37.86,2.49-5.52,5.1-11,7.84-16.4,1.17-2.31,2.07-4.64,2.51-7.17,.36-.31,.81-.55,1.06-.93,1.98-3.01,2.74-6.67,5.14-9.49,.4-.48,.14-1.53,.18-2.31,1.54-.79,2.16-2.31,2.89-3.71,1.18-2.26,2.45-4.49,3.47-6.82,2.43-5.58,5.54-10.79,8.48-16.09,1.86-3.35,3.51-6.82,5.32-10.2,6.04-11.25,11.91-22.6,18.26-33.67,2.78-4.84,4.89-10.03,8.11-14.63,.89-1.27,1.14-2.97,1.73-4.45,3.2-8,5.64-16.25,7.87-24.56,1.32-4.92,2.76-9.82,4.27-14.69,3.02-9.76,5.58-19.64,8.17-29.52,1.66-6.33,3.25-12.72,5.52-18.84,1.49-4.02,2.27-8.22,3.86-12.2,1.6-4,2.92-8.11,4.4-12.15,1.49-4.04,2.7-8.23,4.64-12.05,2.45-4.84,4.39-9.9,7.09-14.65,3.87-6.81,8.11-13.36,12.24-20,.67-1.08,1.05-2.33,1.61-3.48,5.22-10.92,12.85-19.68,22.87-26.53,6.56-4.48,13.68-7.65,21.22-9.78,4.9-1.39,10-1.8,15.17-1.52,4.94,.27,9.9,.15,14.86,.11,7.48-.06,14.54,1.84,21.45,4.46,1.18,.45,2.32,1.07,3.37,1.78,3.85,2.6,7.16,5.86,10.58,8.98,.46,.42,.87,.97,1.15,1.53,3.54,7.02,9.16,12.68,12.88,19.58,.14,.25,.47,.4,.92,.77,1.84-.99,3.91-1.85,5.67-3.14,2.77-2.04,6.03-2.9,9.09-4.22,1.63-.7,3.33-1.04,5.13-1.04,4.96,0,9.94-.4,14.87-.02,4.94,.38,9.65,2.03,14.06,4.4,.83,.45,1.43,1.32,2.5,1.36,1.13-.41,1.16-1.45,1.15-2.36-.02-3.04,1.13-5.55,3.05-7.85,1.73-2.08,3.17-4.42,4.98-6.43,2.38-2.65,5.53-4.35,8.85-5.41,1.65-.53,3.38-.84,4.97-1.6,1.06-.5,2.17-.45,3.29-.45,2.4,0,4.81,.12,7.2-.03,3.41-.21,6.63,.43,9.86,1.45,4.18,1.32,7.74,3.62,10.9,6.58,1.28,1.2,2.42,2.55,3.59,3.86,.42,.47,.99,1.01,1.05,1.57,.33,3.04,2.69,5.4,2.54,8.31,1.33,.86,2.45,.75,3.48,.27,2.59-1.23,5.38-2.11,7.59-4.03,1.02-.88,2.16-1.15,3.42-1.48,2.58-.67,5.12-1.6,7.56-2.69,1.51-.68,2.97-1.04,4.6-1.1,3.17-.11,6.3-1.12,9.51-.21,.53,.15,1.24-.16,1.83-.37,1.72-.61,3.59-.7,5.21-.26,3.63,.98,7.28,.75,10.94,.87,1.45,.05,2.88,.07,4.07,1.1,.76,.67,1.72,.75,2.69,.83,.78,.07,1.73,.07,2.3,.5,2.87,2.21,6.07,1.41,9.33,1.3,1.94-2.13,3.51-4.53,4.78-7.1,.51-1.03,1-1.92,1.94-2.63,1.01-.76,1.95-1.65,2.81-2.59,3.57-3.92,7.61-7.28,12.09-10.08,3.34-2.09,6.73-4.09,10.48-5.46,1.92-.7,3.69-1.83,5.48-2.86,.84-.48,1.61-1.14,2.62-1.04,2.29,.22,4.42-.55,6.59-1.02,2.67-.57,5.37-.81,8.09-.83,3.84-.03,7.68,0,11.52-.02,2.1,0,4.15,.18,6.08,1.11,.57,.27,1.2,.62,1.79,.6,6.2-.18,11.24,3.23,16.69,5.34,.88,.34,1.78,.67,2.69,.92,1.12,.3,2.07,.86,2.87,1.66,2.38,2.37,5.11,4.28,7.81,6.29,4.18,3.11,7.88,6.88,10.68,11.39,1.51,2.42,3.44,4.54,4.54,7.28,.47,1.17,1.4,2.51,3.03,3.23,2.21-.49,4.17-1.93,6.19-3.12,3.89-2.29,8.1-3.75,12.31-5.26,1.25-.45,2.48-.53,3.76-.51,2.24,.02,4.49,.18,6.72,.03,5.24-.37,10.07,1.02,14.87,2.93,2.61,1.04,5.34,2.1,8.57,1.46,.39-2.46,1.4-4.77,2.33-7.11,1.08-2.71,2.47-5.09,5.07-6.71,2.28-1.43,4.14-3.79,6.56-4.63,2.45-.85,5.36-.35,8.08-.41,3.02-.07,6.25-.89,9.01,.27,2.57,1.08,4.78,3.17,6.95,5.05,2.68,2.33,5.57,4.2,8.85,5.59,3.41,1.46,5.97,4.23,8.82,6.53,.57,.46,.78,1.35,1.19,2.1,1.99,.46,4.04,.5,6.07,1.09,6.42,1.89,11.87-1.12,13.74-7.59,.71-2.45,1.98-3.42,4.37-3.5,2.55-.09,5.08-.23,7.57-1.02,1.15-.36,2.52,0,3.79,0,1.92,0,3.84,0,5.76-.01,1.4-.05,2.83-.17,4.17,.39,1.66,.7,3.38,.51,5.09,.5h-.06ZM395.55,430.94c4.48-.05,8.18,.28,11.71-1.04,2.53-.94,5.06-1.92,7.57-2.91,1.48-.58,3.2-.91,4.35-1.9,1.6-1.37,3.67-1.88,5.14-3.37,1.46-1.48,2.97-2.9,4.41-4.4,5.41-5.64,7.46-13.19,5.64-20.76-.33-1.38-.52-2.9-1.24-4.07-3.71-6.03-7.87-11.66-14.78-14.44-1.03-.42-1.97-1.07-3-1.5-5.75-2.45-11.59-4.46-17.99-4.2-3.66,.15-7.27,.31-10.93,.8-4.34,.58-8.4,1.55-12.27,3.59-2.39,1.26-4.9,2.32-7.4,3.37-1.09,.46-2.01,1.11-2.53,2.09-1.01,1.88-2.61,3.21-4.01,4.73-.75,.81-1.68,1.63-2.01,2.63-.76,2.3-1.92,4.39-2.99,6.52-.73,1.46-1.02,2.97-1.07,4.6-.13,4.15,1.57,7.78,3.11,11.43,1.05,2.5,2.28,4.94,4.49,6.7,3.22,2.56,6.37,5.23,10.16,6.96,2.03,.93,4.06,1.84,6.14,2.66,1.48,.58,3.01,1.31,4.55,1.4,4.6,.24,9.1,1.79,12.95,1.1h0Zm17.19-213.06c-.1-2.6,.25-5.93-.94-9.21-.79-2.18-2.66-3.69-3.4-5.69-1.96-5.24-7.19-7.03-10.56-10.74-.1-.11-.28-.15-.43-.2-4.34-1.51-8.35-3.77-13.07-4.42-4.2-.57-8.2-.75-12.22,.64-2.11,.73-4.21,1.5-6.35,2.1-1.88,.53-3.56,1.44-5.08,2.58-3.55,2.67-6.98,5.36-9.68,9.09-3.53,4.89-4.75,10.31-5.46,16.03-.45,3.63,.94,6.9,1.99,10.24,1.42,4.5,4.08,8.22,7.18,11.7,3.27,3.67,7.6,5.68,11.77,8.05,4.02,2.29,8.52,.74,12.6,2.27,1.42,.53,3.18,.33,4.7-.31,1.22-.52,2.5-.45,3.77-.52,.94-.06,1.98-.05,2.8-.44,5.02-2.4,9.96-4.75,14.09-8.83,4.33-4.28,6.01-9.65,8.14-14.93,.28-.7,.14-1.58,.15-2.38,.02-1.44,0-2.88,0-5.04h0ZM748.71,86.25c.75-3.22-.51-7.16-2.24-10.97-1.53-3.37-3.43-6.73-6.68-8.53-1.96-1.08-3.71-2.4-5.57-3.58-4.32-2.76-9.26-3.06-14.11-3.67-.6-.08-1.25,.19-1.87,.32-.78,.16-1.55,.48-2.33,.49-5.11,.09-9.63,1.89-13.53,5.04-5,4.04-9.48,8.43-10.6,15.34-.38,2.38-.63,4.71-.66,7.09-.12,10.23,5.63,16.98,13.66,22.05,4.43,2.8,8.27,3.77,12.98,4.19,3.16,.28,6.4,.44,9.45-.85,3.23-1.37,6.43-2.79,9.62-4.22,.42-.19,.79-.54,1.12-.88,2.46-2.5,5.06-4.83,6.97-7.85,3.71-5.87,3.79-5.82,3.77-13.97h.02Zm-458.04,76.9c6.82-.11,12.42-.7,17.74-3.14,5.35-2.46,9.66-6.08,12.88-10.95,1.41-2.13,2.31-4.47,2.19-7.2-.16-3.65,.42-7.4-2.39-10.42-.1-.11-.18-.28-.2-.43-.31-2.25-1.84-3.73-3.45-5-2.43-1.92-4.57-4.39-7.88-4.93-.3-.05-.6-.23-.87-.39-5.15-3.01-10.95-3.06-16.62-3.63-1.42-.14-2.83,.2-4.25,.43-3.82,.6-7.35,1.96-10.92,3.31-6.4,2.41-10.73,6.95-12.93,13.2-1.78,5.03-2.25,10.31,1.45,14.99,.29,.37,.44,.85,.69,1.26,2.6,4.34,5.78,8.01,10.94,9.39,.76,.2,1.43,.72,2.17,.99,4.05,1.47,8.08,3.06,11.45,2.52h0Zm428.83,186.19h0c1.92,0,3.84,.1,5.75-.03,3.18-.23,6.34-.71,9.09-2.51,1.99-1.31,3.84-2.8,6.16-3.59,.69-.24,1.35-.9,1.78-1.54,1.52-2.24,3.18-4.42,4.14-6.98,1.52-4.06,2.77-8.13,.49-12.39-.59-1.1-.73-2.44-1.17-3.63-1.28-3.47-3.68-5.91-7.05-7.42-2.02-.91-4.23-1.53-6.01-2.77-2.33-1.62-4.83-2.17-7.51-2.73-6.9-1.42-13.62-.34-20.28,1.18-5.65,1.29-9.78,5.11-13.73,9.16-2.71,2.78-3.34,6.44-4.74,9.78-.12,.28-.11,.65-.05,.95,.5,2.48,.78,5.04,1.6,7.42,2.64,7.66,8.85,11.31,16.03,13.75,.29,.1,.69,.18,.93,.06,1.67-.88,3.16,.06,4.6,.55,1.71,.58,3.41,.76,5.17,.73,1.6-.02,3.19,0,4.79,0h.01Zm67.65-217.88c3.29,.9,7.05-.63,10.62-2.94,.53-.35,1.16-.55,1.68-.91,.64-.45,1.34-.91,1.78-1.53,1.65-2.33,3.41-4.57,4.7-7.17,2.43-4.88,1.27-9.59-.23-14.34-6.68-10.37-13.67-13.02-25.09-11.15-1.39,.23-2.85,.55-4.06,1.23-4.24,2.38-7.75,5.62-9.96,9.99-2.18,4.31-2.27,8.99-.88,13.49,1.52,4.91,5.25,8.31,9.45,10.96,2.64,1.67,5.61,3.02,8.99,2.39,.62-.12,1.27-.02,3-.02h0Zm105.31,154.5h4.29c.96,0,1.89-.11,2.75-.64,1.36-.83,2.85-1.47,4.11-2.42,2.29-1.72,4.55-3.57,5.75-6.27,3.18-7.17,1.97-14.49-3.57-20.26-1.36-1.42-2.99-2.29-4.79-3.03-3.23-1.32-6.59-.85-9.91-.99-6.57-.28-11.28,2.64-14.44,8.27-2.37,4.23-2.74,8.77-1.81,13.42,.41,2.04,1.37,3.87,3.05,5.26,1.83,1.51,3.05,3.73,5.37,4.66,3.1,1.24,6.16,2.7,9.21,2h-.01Zm-681.33,62.09c.66-3.21-1.35-6.03-2.77-9.04-1.01-2.12-3.15-2.54-4.9-3.57-.96-.56-1.86-1.24-2.84-1.75-3.54-1.83-7.39-2.33-11.1-1.15-3.14,1-5.89,3.06-8.43,5.22-1.59,1.35-3.17,3.19-3.31,5.1-.33,4.5-1.17,9.07,1.47,13.44,1.73,2.87,3.68,5.22,6.8,6.29,3.88,1.34,7.71,2.26,12.04,1.29,7.25-1.63,13.02-8.01,13.05-15.83h0Zm361.79-190.56c1.74-.13,3.6,.07,5.21-.47,4.07-1.36,7.24-3.9,9.14-7.92,1.82-3.85,1.83-7.95,.56-11.67-1.41-4.12-4.45-7.32-8.89-8.69-1.37-.42-2.76-.79-4.17-1.01-5.05-.8-9.78,.64-13.27,4-3.16,3.04-5.26,7.01-4.87,11.98,.46,5.81,3.75,10.74,9.23,12.72,2.31,.84,4.64,1.1,7.06,1.06Z" style="fill: #c9845b;"/>
    <path d="M785.14,429.48c-.05-1.66-1.44-2.42-2.42-3.39-1.4-1.37-2.39-2.96-3.28-4.67-2.52-4.84-4.13-10.03-5.43-15.27-.63-2.57-.63-5.47-.14-8.08,.48-2.58,.25-5.48,2.19-7.69,.2-.22,.29-.57,.34-.88,.99-6.36,5.25-10.73,9.29-15.21,1.5-1.66,3.17-3.16,4.74-4.75,.9-.92,1.84-1.77,3.05-2.28,.59-.25,1.23-.48,1.69-.89,5.56-5.06,12.66-7.18,19.37-9.94,3.04-1.25,6.44-1.68,9.71-2.28,3.6-.65,7.22-1.03,10.9-1.11,2.18-.04,4.32-.98,6.6-.82,2.22,.16,4.45-.13,6.63,.69,.86,.32,1.89,.2,2.85,.25,7.85,.36,15.43,1.97,22.69,5.01,2.64,1.11,5.36,2.12,7.84,3.52,4.56,2.57,9.14,5.17,12.74,9.11,2.79,3.05,6.03,5.64,8.37,9.17,5.3,8,7.63,16.71,7.1,26.25-.06,1.14-.23,2.22-.76,3.23-.67,1.29-1.17,2.61-1.15,4.1,0,.46-.06,1.01-.3,1.38-2.42,3.89-3.99,8.3-7.27,11.67-1.99,2.04-3.74,4.29-4.96,6.9-1.76,.17-3.48,.39-4.67,1.99-1.39,1.87-3.64,2.55-5.51,3.75-6.08,3.92-12.81,6.26-19.7,8.38-7.14,2.19-14.35,2.86-21.72,2.78-1.28-.01-2.56-.04-3.84,0-8.21,.29-16.15-1.15-24.02-3.39-10.48-2.98-19.65-8.21-27.8-15.35-.96-.84-1.9-1.71-3.13-2.17h0Z" style="fill: #a16142;"/>
    <path d="M242.74,434.47c-.09-2.04-1.65-3.16-3.07-4-4.05-2.38-6.59-5.99-8.61-9.99-2.39-4.72-4.11-9.69-3.6-15.11,.66-6.99,3.02-13.15,7.9-18.46,4.08-4.44,9.18-7.31,14.06-10.58,.78-.52,1.73-.79,2.63-1.11,1.8-.64,3.65-1.15,5.42-1.85,2.97-1.18,5.92-2.39,9.22-2,5.16-1.51,10.45-.8,15.69-.91,4.49-.1,8.86,.78,13.12,2.06,2.58,.77,5.23,1.3,7.67,2.56,5.63,2.92,11.3,5.77,15.98,10.15,1.15,1.07,2.11,2.37,3,3.68,3.83,5.63,6.47,11.63,6.16,18.69-.09,2.11-1.39,3.94-1.03,6.07-1.08,5.18-3.84,9.54-7.37,13.24-3.61,3.78-7.72,7.14-12.56,9.4-3.91,1.83-7.86,3.56-12.03,4.7-3.87,1.06-7.77,1.85-11.82,1.73-3.04-.09-6.08-.14-9.12-.01-6.68,.27-12.95-1.3-19.14-3.64-3.14-1.19-6.35-2.17-9.27-3.86-1.02-.59-2.14-.59-3.24-.76h0Z" style="fill: #a16142;"/>
    <path d="M395.55,430.94c-3.85,.68-8.35-.86-12.95-1.1-1.54-.08-3.07-.82-4.55-1.4-2.08-.81-4.11-1.73-6.14-2.66-3.79-1.73-6.94-4.4-10.16-6.96-2.21-1.76-3.43-4.2-4.49-6.7-1.54-3.66-3.24-7.29-3.11-11.43,.05-1.64,.34-3.14,1.07-4.6,1.07-2.14,2.23-4.22,2.99-6.52,.33-.99,1.26-1.81,2.01-2.63,1.41-1.52,3-2.85,4.01-4.73,.53-.98,1.45-1.63,2.53-2.09,2.5-1.05,5-2.11,7.4-3.37,3.87-2.04,7.93-3,12.27-3.59,3.66-.49,7.27-.65,10.93-.8,6.4-.26,12.24,1.75,17.99,4.2,1.03,.44,1.96,1.09,3,1.5,6.92,2.78,11.08,8.4,14.78,14.44,.72,1.17,.91,2.69,1.24,4.07,1.83,7.56-.23,15.12-5.64,20.76-1.44,1.5-2.95,2.92-4.41,4.4-1.47,1.49-3.55,2-5.14,3.37-1.15,.98-2.87,1.32-4.35,1.9-2.52,.99-5.04,1.96-7.57,2.91-3.53,1.31-7.23,.98-11.71,1.04h0Z" style="fill: #a16142;"/>
    <path d="M412.73,217.87c0,2.17,.01,3.61,0,5.04-.01,.8,.13,1.68-.15,2.38-2.12,5.28-3.81,10.65-8.14,14.93-4.13,4.08-9.07,6.42-14.09,8.83-.82,.39-1.86,.38-2.8,.44-1.27,.08-2.55,0-3.77,.52-1.53,.65-3.29,.84-4.7,.31-4.08-1.53-8.58,.02-12.6-2.27-4.17-2.37-8.5-4.38-11.77-8.05-3.1-3.48-5.76-7.2-7.18-11.7-1.05-3.34-2.44-6.61-1.99-10.24,.71-5.72,1.93-11.14,5.46-16.03,2.7-3.74,6.13-6.42,9.68-9.09,1.52-1.14,3.19-2.06,5.08-2.58,2.15-.6,4.25-1.37,6.35-2.1,4.02-1.4,8.02-1.22,12.22-.64,4.72,.64,8.73,2.91,13.07,4.42,.15,.05,.33,.09,.43,.2,3.37,3.71,8.6,5.49,10.56,10.74,.75,2,2.61,3.51,3.4,5.69,1.19,3.28,.84,6.61,.94,9.21h0Z" style="fill: #a16142;"/>
    <path d="M748.71,86.25c.02,8.15-.06,8.1-3.77,13.97-1.91,3.02-4.51,5.35-6.97,7.85-.33,.34-.7,.69-1.12,.88-3.2,1.43-6.4,2.85-9.62,4.22-3.05,1.29-6.28,1.13-9.45,.85-4.72-.42-8.56-1.39-12.98-4.19-8.03-5.08-13.78-11.82-13.66-22.05,.03-2.38,.27-4.71,.66-7.09,1.11-6.91,5.59-11.3,10.6-15.34,3.9-3.15,8.42-4.95,13.53-5.04,.78-.01,1.55-.33,2.33-.49,.62-.13,1.27-.39,1.87-.32,4.86,.61,9.79,.9,14.11,3.67,1.85,1.19,3.61,2.5,5.57,3.58,3.25,1.8,5.15,5.16,6.68,8.53,1.73,3.81,3,7.75,2.24,10.97h-.02Z" style="fill: #a16142;"/>
    <path d="M290.67,163.15c-3.37,.54-7.4-1.05-11.45-2.52-.75-.27-1.42-.79-2.17-.99-5.16-1.38-8.34-5.05-10.94-9.39-.25-.41-.4-.89-.69-1.26-3.71-4.68-3.23-9.96-1.45-14.99,2.21-6.25,6.53-10.79,12.93-13.2,3.58-1.35,7.11-2.71,10.92-3.31,1.42-.22,2.83-.57,4.25-.43,5.68,.57,11.47,.62,16.62,3.63,.27,.16,.57,.34,.87,.39,3.31,.55,5.45,3.01,7.88,4.93,1.61,1.28,3.15,2.75,3.45,5,.02,.15,.1,.32,.2,.43,2.8,3.02,2.23,6.78,2.39,10.42,.12,2.73-.79,5.07-2.19,7.2-3.22,4.87-7.53,8.49-12.88,10.95-5.32,2.44-10.92,3.03-17.74,3.14h0Z" style="fill: #a16142;"/>
    <path d="M719.49,349.34c-1.6,0-3.19-.02-4.79,0-1.76,.02-3.46-.15-5.17-.73-1.44-.49-2.93-1.43-4.6-.55-.24,.13-.64,.04-.93-.06-7.18-2.44-13.4-6.09-16.03-13.75-.82-2.37-1.1-4.94-1.6-7.42-.06-.3-.07-.67,.05-.95,1.4-3.34,2.03-7.01,4.74-9.78,3.95-4.05,8.08-7.87,13.73-9.16,6.66-1.52,13.38-2.6,20.28-1.18,2.68,.55,5.19,1.11,7.51,2.73,1.78,1.24,4,1.86,6.01,2.77,3.36,1.51,5.76,3.95,7.05,7.42,.44,1.19,.58,2.53,1.17,3.63,2.28,4.26,1.02,8.33-.49,12.39-.96,2.56-2.62,4.74-4.14,6.98-.43,.63-1.09,1.3-1.78,1.54-2.31,.79-4.17,2.28-6.16,3.59-2.75,1.8-5.91,2.28-9.09,2.51-1.91,.14-3.83,.03-5.75,.03h-.01Z" style="fill: #a16142;"/>
    <path d="M787.15,131.45c-1.72,0-2.38-.1-3,.02-3.38,.63-6.35-.71-8.99-2.39-4.2-2.66-7.93-6.06-9.45-10.96-1.39-4.49-1.3-9.17,.88-13.49,2.21-4.37,5.71-7.62,9.96-9.99,1.21-.68,2.67-1,4.06-1.23,11.42-1.86,18.41,.78,25.09,11.15,1.5,4.76,2.65,9.46,.23,14.34-1.29,2.6-3.05,4.84-4.7,7.17-.44,.62-1.14,1.08-1.78,1.53-.52,.36-1.15,.57-1.68,.91-3.57,2.31-7.33,3.84-10.62,2.94h0Z" style="fill: #a16142;"/>
    <path d="M892.45,285.95c-3.04,.7-6.11-.76-9.21-2-2.32-.93-3.54-3.15-5.37-4.66-1.68-1.39-2.64-3.22-3.05-5.26-.94-4.65-.57-9.19,1.81-13.42,3.16-5.64,7.87-8.55,14.44-8.27,3.32,.14,6.68-.32,9.91,.99,1.8,.74,3.43,1.61,4.79,3.03,5.54,5.78,6.75,13.1,3.57,20.26-1.2,2.7-3.46,4.55-5.75,6.27-1.26,.95-2.75,1.59-4.11,2.42-.86,.53-1.79,.64-2.75,.64h-4.28Z" style="fill: #a16142;"/>
    <path d="M211.12,348.04c-.04,7.82-5.8,14.2-13.05,15.83-4.33,.97-8.16,.05-12.04-1.29-3.12-1.07-5.07-3.42-6.8-6.29-2.64-4.37-1.8-8.94-1.47-13.44,.14-1.92,1.72-3.76,3.31-5.1,2.54-2.15,5.28-4.21,8.43-5.22,3.72-1.19,7.56-.68,11.1,1.15,.99,.51,1.88,1.18,2.84,1.75,1.75,1.03,3.89,1.45,4.9,3.57,1.43,3.01,3.43,5.83,2.77,9.04h0Z" style="fill: #a16142;"/>
    <path d="M572.91,157.48c-2.42,.05-4.76-.22-7.06-1.06-5.48-1.99-8.78-6.91-9.23-12.72-.39-4.98,1.71-8.95,4.87-11.98,3.49-3.36,8.22-4.8,13.27-4,1.41,.22,2.81,.59,4.17,1.01,4.44,1.36,7.49,4.57,8.89,8.69,1.27,3.72,1.26,7.82-.56,11.67-1.9,4.02-5.07,6.56-9.14,7.92-1.61,.54-3.47,.33-5.21,.47Z" style="fill: #a16142;"/>
  </g>
  <path d="M936.2,166.05c.77,.68,.93,1.55,.79,2.51-5.25-.1-10.5-.21-15.76-.27-.44,0-.88,.31-1.32,.48-1.94-.14-3.88-.29-5.82-.43-.37-.28-.72-.77-1.12-.82-4.42-.52-8.76-1.33-13.04-2.62-1.91-.58-4.05-.96-5.99,.25-.58-.2-1.15-.4-1.73-.6-.28-.75-.54-1.74-1.41-1.76-3.23-.1-6.15-1.37-9.16-2.24-3.02-.87-6.01-1.9-8.9-3.13-5.26-2.23-10.55-4.39-15.56-7.19-.23-.13-.62,.02-.93,.04l.21-.26-.22,.25c-.1-.87-.59-1.46-1.34-1.85-3.87-2.06-6.97-5.09-9.87-8.28-2.23-2.46-4.75-4.9-5.68-8.18-.6-2.12-1.65-3.72-3.17-5.15-.17-.61-.34-1.21-.52-1.82,.91-3.17,1-6.34-.04-9.5,.12-.6,.23-1.19,.35-1.79,1.47-.74,1.53-2.32,2.09-3.58,1.22-2.75,2.1-5.7,3.66-8.23,1.89-3.07,4.31-5.83,6.57-8.67,.71-.89,1.4-1.72,1.29-2.94,.52-.39,1.04-.77,1.55-1.16,1.81,.01,3.37-.85,4.98-1.49,1.34-.53,2.66-1.01,4.13-1.06,4.65-.15,9.15-.03,13.37,2.57,1.72,1.06,3.62,1.95,5.35,3.07,1.11,.72,2.18,1.31,3.55,1.05,.29,.04,.52,.17,.69,.42,.25,1.23,1.03,1.67,2.23,1.47,1.47,1.04,2.76,2.27,3.82,3.74,.1,2.47,2,2.69,3.8,3.05,.3,.31,.6,.62,.9,.93,.28,2.3,1.8,3.87,3.35,5.35,.48,.46,1.44,.43,2.19,.62,.21,.12,.34,.29,.38,.53,.02,.47-.15,1.07,.08,1.37,2.04,2.76,4.39,5.23,6.98,7.48,.1,.08,.31,.04,.46,.06h0c-.21,1.55,.59,2.69,1.49,3.84,2.04,2.61,4.05,5.24,5.99,7.93,1.57,2.17,3.21,4.3,4.12,6.89,.76,2.17,2.2,3.77,4.45,4.53,.21,.17,.32,.39,.34,.66-.07,2.74,.69,5.01,3.53,6.06,.18,.19,.28,.41,.3,.67,.12,2.4,1.6,4.28,2.52,6.37,.13,.3,.8,.36,1.22,.54,.17,.16,.26,.36,.27,.6-.32,1.25,.02,2.11,1.38,2.39,.21,.19,.33,.42,.36,.7,.59,2.35,1.59,4.53,2.8,6.62l.04-.02Z" style="fill: #e22a2a;"/>
</svg>