<?xml version="1.0" encoding="UTF-8"?>
<svg id="Layer_1" data-name="Layer 1" xmlns="http://www.w3.org/2000/svg" viewBox="0 0 504.51 610.45">
  <path d="M102.69,342.32c.18-13.82,.27-27.63-.52-41.44-.69-12.14-1.09-24.3-1.27-36.46-.32-21.98-2.1-43.89-3.33-65.82-.8-14.25-2.59-28.45-3.78-42.69-.2-2.45-1.6-3.45-3.4-4.43-7.65-4.18-14.53-9.35-20.73-15.5-18.52-18.37-22.14-40.64-10.23-63.87,3.51-6.84,7.7-13.24,13-18.86,4.85-5.14,6.98-5.27,12.05-.5,12.01,11.29,24.02,22.56,37.18,32.51,1.11,.03,1.37-.93,1.73-1.58,18.26-32.87,47.37-50.82,82.7-60.25,24.09-6.44,48.72-7.48,73.35-5.81,31.15,2.11,60.61,10.19,86.22,29.1,12.9,9.53,23.35,21.28,31.31,35.23,.66,1.15,1.41,2.24,2.26,3.59,10.6-8.3,20.75-16.86,30.36-26.07,2.89-2.77,5.82-5.49,8.75-8.21,2.77-2.58,5.61-2.54,8.49-.19,17.41,14.28,26.1,43.14,18.79,63.92-5.23,14.86-16.1,25.41-29.37,32.83-7.48,4.18-9.1,9.56-9.6,17.02-1.26,18.75-3.34,37.44-4.52,56.19-1.15,18.45-1.72,36.94-2.27,55.43-.17,5.66-.67,11.19-1.97,16.7-.44,1.87-.07,3.94-.07,6.25,12.99-3.93,25.4-1.68,37.73,1.94,3.99,1.17,7.65,2.58,10.71,5.86,2,2.14,4.79,3.82,7.76,5.14,7.57,3.36,11.49,10.18,13.45,17.71,4.48,17.22,7.22,34.77,7.8,52.59,.28,8.48-1.8,9.53-9.81,6.92-7.03-2.29-13.41-5.7-19.86-9.94-1.1,4.26-1.92,8.32-1.67,12.41,.3,4.75-2.47,4.93-5.7,4.2-8.56-1.95-15.69-6.25-21.11-13.3-2.5-3.25-5.18-6.36-7.92-9.71-4.35,4.22-5.58,9.28-7.56,13.96-1.43,3.36-2.86,6.73-4.5,9.99-.64,1.27-1.07,3.4-3.46,2.45l-7.34-5.08c-.86-.37-1.72-.74-2.58-1.11-2.01-3.33-4.02-6.66-6.03-9.99-1.25-3.24-2.96-6.39-3.65-9.75-1.33-6.49-4.92-10.78-10.44-14.35-11.13-7.19-16.71-17.3-14.05-30.94,.81-1.64,1.83-3.24,.16-4.99-3.43-3.6-6.81-7.25-10.25-10.84-1.53-1.59-2.22-.5-2.72,.96-3.1,3.64-6.04,7.39-9.74,10.53-7.93,6.74-17.22,11-26.58,15.18-6.48,1.92-12.96,3.83-19.59,5.79,0,2.32,0,4.3,0,6.29q0,12.94-13.39,13.04c-1.33,.01-2.68,.14-3.99-.01-11.24-1.31-22.37,.73-33.56,1.05-10.59,.3-21.19,.06-32.19,.06,0-6.97-.14-13.27,.06-19.56,.09-2.85-.91-4.04-3.63-4.86-10.58-3.17-20.41-8.01-29.5-14.29-6-4.76-11.36-10.12-15.03-17.01-14.84,12.72-33.77,40.92-38.46,57.19,4.33,2.61,8.51,5.6,12,9.43,8.16,8.95,10.24,20.07,5.15,30.42-3.23,6.57-8.75,11.21-14.89,15.03-1.23,.77-2.79,.94-3.35,2.65-2.97,9.2-8.87,17.03-12.26,26.04-1.43,1.01-2.16,2.39-2.14,4.15-.99,.94-1.98,1.87-2.97,2.81-6.65,3.11-8.14,2.56-11.65-3.98-3.29-6.13-6.43-12.32-9.23-19.99-8.8,12.89-19.14,21.83-34.41,23.17-3.38-5.2,.08-11.3-3.15-16.4-9.41,3.33-17.16,12.65-29.2,9.04,.07-12.04,.43-23.7,2.51-35.41,1.24-6.98,2.68-13.94,3.79-20.95,1.58-9.96,7.19-17.01,15.05-22.58,12.97-9.18,27.83-12.2,43.35-12.87,2.66-.11,5.32-.05,7.99-.07,1.88-.17,3.93,.64,5.82-1.04-1.49-4.56-.42-9.36-.93-14.07Zm333.98,5.12c-.65,2.33-1.3,4.66-1.94,6.99-1.9,1.82-.59,3.52,.19,5.25l-1.13,2.81c-3.58,2.81-3.82,5.74-.38,8.88,1.44,1.31,2.76,2.76,4.13,4.15,2.52,3.3,5.43,6.18,9.07,8.26,.76,1.23,1.9,1.92,3.24,2.33,2.7,2.21,5.68,3.73,9.69,4.14v-4.72c.78-7.94,1.25-15.9,.89-23.87-.46-10.28-.93-20.61-4.74-30.34-1.67-4.26-3.42-8.75-8.8-9.81-1.82-1.38-.84-3.39-1.15-5.12,.02-.27,.05-.53,.09-.8,2.69-.74,4.8,.79,7.05,1.8,1.61,1.69,3.22,3.38,4.82,5.07,1.36,2.99,2.72,5.99,4.08,8.98,.67,3.33,1.34,6.65,2.02,9.98-.18,2.31-.19,4.56,2.01,6.09-.15,1.27-.31,2.55-.46,3.82-1.13,2.15,.61,4.06,.49,6.12-.03,2.64-.1,5.29-.1,7.93,.02,6.97,3.84,11.58,10.95,13.25,1.71,1.22,3.41,2.45,5.12,3.67,1.89,.92,3.79,1.79,5.94,1.87,1.21,.36,1.91,0,1.87-1.35-.27-7.89-.16-15.81-1.74-23.6,.84-2.26-.85-4.07-1.14-6.16-.98-7.15-1.12-14.48-4.03-21.26-2.15-5-3.75-10.36-8.89-13.37-.04-.25-.08-.5-.12-.75-3.03-3.48-3.52,.31-4.84,1.7-.3-1.67,.52-3.57-1.04-4.98,.51-4.54-2.82-5.15-6.02-5.89-2.09-1.56-4.35-2.74-7-3.01-4.54-1.6-9.11-3.07-14-3.06-6.13-1.66-12.39-1.03-18.59-.81-1.41,.05-3.53-2.1-4.53,.77-2,.14-4.09-.28-5.9,.98-3.17,.02-6.11,.99-8.99,2.18-3.26,.65-6.34,1.75-9.02,3.79-3.14,.9-5.77,2.64-8.03,4.96-2.35,1.29-4.58,2.71-5.94,5.14-2.38,2.59-4.26,5.45-5.04,8.94-1.45,2.69-1.64,5.63-1.26,8.52,1.37,10.22,7.68,16.8,16.29,21.61,1.18,1.89,4.83-.28,5.1,3.1,1.67,4.28,2.27,8.97,4.88,12.9,.42,3.12,2.17,5.57,4.02,7.96,.77,2.36,2.2,4.28,4.03,5.91,.89,1.77,2.18,3.15,3.98,4.03,1.94,2,2.12-.36,2.54-1.19,6.76-13.36,12.83-27.04,16.09-41.7,1.79-8.04,3.56-16.4-1.63-24.11-.61-1.07-2.16-1.49-2.06-3.04-.17-1.12,.48-1.92,1.08-2.74,3.75-1.28,4.66,2.39,6.81,3.91,.77,1.96,1.55,3.92,2.32,5.89,.28,2.68,.57,5.35,.85,8.03-1.95,3.16-.56,6.69-1.11,10ZM55.71,405.35c-.37-4.15,1.89-7.85,2.02-11.92,1.02-2.66,2.04-5.32,3.06-7.98,1.65-2.34,3.3-4.68,4.95-7.02,2.56-1.24,4.91-3.04,7.98-2.85,.44,.98,.88,1.95,1.32,2.93-.07,2.29-.15,4.58-.22,6.87-.3,1.35,.38,2.92-.95,4.03-.54-2.63-1.09-5.26-1.74-8.42-7.32,6.14-9.6,13.83-10.46,22.17-1.38,4.98-1.81,10.07-1.68,15.22-.49,6.01-.43,12.01-.02,18.02-.47,4.09,.43,8.1,.7,12.14,.18,2.82,1.65,2.19,3.21,1.08,4.04-.93,7.29-3.19,10.18-6.05,2.95-.61,3.49-3.82,5.68-5.25,2.9-1.18,4.22-4.04,6.38-6.01,3.86-3.51,3.96-6.85-.27-10.11l-.3-1.42c1.51-2.63,.56-5.02-.73-7.38-1.28-6.26-2.29-12.55-2.2-18.97,.04-1.34,.08-2.68,.12-4.02-.42-2.92,2.5-4.45,2.9-7.03,1.37-1.32,2.75-2.64,4.12-3.96,.64,.05,1.27,.11,1.91,.16,.62,.62,1.24,1.24,1.85,1.86,.1,.97,.19,1.93,.29,2.9-.37,.36-.74,.73-1.11,1.09-5.1,2.88-4.97,8.05-4.65,12.6,1.01,14.25,5.32,27.65,11.79,40.37,1.32,4.83,4.02,9.05,6.09,13.54,.67,1.46,1.61,2.23,2.8,.36,2.33-1.36,3.95-3.34,5.07-5.77,2.03-1.85,3.3-4.16,4.13-6.74,3.34-5.96,6.34-12.04,6.64-19.06,.06-.48,.12-.97,.18-1.45,14.18,.23,26.27-19.04,20.05-31.96-.8-3.18-2.44-5.82-5.07-7.81-1.76-1.99-2.98-4.58-5.89-5.29-2.89-2.76-6.18-4.82-10.08-5.84-2.49-1.48-5.04-2.76-8-2.97-2.86-1.32-5.82-2.19-9.01-2.05-2.5-1.25-5.2-1.01-7.87-1.02-7.81-1.92-15.48-.65-23.13,.99-4.3-.14-8.15,1.47-11.98,3.12-1.84,.18-3.56,.69-5.03,1.87-3.44,1.27-7.63,1.81-7.04,7.09-.69,.69-1.38,1.38-2.08,2.07-3.86-.09-5.95,2.6-7.69,5.35-4.91,7.75-7.37,16.36-8.24,25.44-2.63,11.17-2.92,22.56-3.12,33.96-.05,2.63,1.28,2.62,3.14,1.88,1.82-.26,3.53-.77,5-1.93,1.54-.34,2.9-1.02,4.05-2.09,3.03-1.08,5.36-3.26,7.85-5.15,1.95-1.48,3.89-2.89,3.83-5.95-.12-6.47,.12-12.94,.22-19.41,.34-1.42,.68-2.84,1.02-4.26Zm234.87-191.69l-.05-.06c1.21,2.44,1.65,5.38,4.47,6.78,4.6,2.28,8.51,5.56,12.63,8.55,.59,.54,1.19,1.09,1.78,1.63,.07,.31,.19,.6,.36,.86,1.62,2.37,3.68,4.31,5.94,6.05,.26,2.48,1.91,3.05,4.05,2.96,2.37,.97,4.74,1.93,7.11,2.9,3.28,1.08,6.55,2.16,9.83,3.23,3.14,1.86,6.29,3.69,9.41,5.58,5.51,3.32,10.15,7.58,13.08,13.36,2.59,5.09,3.18,10.41,.79,15.85-.57,1.31,.16,2.58,.57,3.85,1.87,5.78,2.19,11.68,.86,17.6-.34,1.51-.88,2.85,.43,4.15,4.09,4.07,8.16,8.16,12.5,12.51,2.23-3.45,4.67-5.87,7.42-8.06,6.36-5.06,13.62-8.23,21.3-10.58,1.99-.61,3.7-1.16,3.78-3.83,.15-5.31,.68-10.6,.85-15.91,.44-13.8,.45-27.62,1.29-41.39,.35-5.8,.46-11.62,.91-17.41,1.56-20.34,3.25-40.66,4.91-60.99,.31-3.8,.66-7.6,1.1-11.39,.6-5.15,5.26-6.78,8.89-9.42-3.75-5.04-8.62-8.3-13.05-12-3.95-3.3-4.22-7.78-.32-11.21,2.91-2.56,5.5-5.32,6.89-9.04,3.05-8.16,7.41-15.6,12.39-22.72,2.59-3.69,5.66-6.34,10.29-7.18,2.86-.52,5.78-1.3,8.46-3.09-1.74-4.13-3.65-7.85-7.04-10.32-5.94,3.56-10.26,8.49-14.96,12.9-7.37,6.91-16.2,12.2-22.28,20.59-5.64,7.8-10.11,7.36-14.04-1.25-13.3-29.16-35.99-47.57-65.77-57.97-22.66-7.91-46-10.65-69.95-9.91-14.5,.45-28.79,1.89-42.9,5.18-22.58,5.26-43.06,14.61-60.05,30.8-10.04,9.57-17.14,21.11-22.93,33.6-2.89,6.24-8.26,6.61-12.41,1.17-1.91-2.51-3.47-5.47-5.86-7.39-11-8.86-21.51-18.27-31.99-27.95-2.98,2.44-5.15,5.14-6.19,9.65,12.6,.7,20.82,7.36,26.04,18.1,2.25,4.64,4.6,9.23,6.7,13.94,1.38,3.08,2.97,5.91,5.51,8.21,5.39,4.91,4.87,9.37-.9,14.13-4.64,3.83-9.74,7.28-13.59,12.96,5.92,1.65,8.42,5.51,8.89,11.03,1.6,19.17,3.59,38.31,4.89,57.49,1.35,19.88,2.3,39.79,3.02,59.7,.66,18.29,.63,36.6,1.23,54.9,.36,10.8,1.11,21.59,.91,32.41-.05,2.61,.96,3.95,3.49,4.6,2.35,.6,4.6,1.61,7.25,2.57,9.42-21.99,22.49-41.08,39.87-57.11,1.26-1.16,1.27-2.41,.87-4.06-1-4.17-1.88-8.31-.68-12.75,.74-2.72,1.75-5.49,.45-8.72-2.77-6.91-1.89-13.61,2.68-19.76,4.8-6.45,11.7-10.17,18.19-14.45,2.93-1.05,5.87-2.09,8.8-3.14,2.75-.6,5.38-1.41,7.05-3.95,.67-1,1.35-1.99,2.02-2.99,1.97-2.06,3.94-4.12,5.9-6.18,4.51-5.03,10.13-8.54,16.02-11.67,1.45-.77,3.21-1.17,3.97-2.83,2.51-5.42,6.75-9.37,11.13-13.21,10.52-6.16,21.45-7.34,32.86-2.71,2.41,1.89,5.88,2.02,7.8,4.72,2.38,2.7,4.75,5.4,7.13,8.11ZM101.93,131.74c2.96-2.37,5.99-4.66,8.86-7.14,2.05-1.77,2.61-4.61,.52-6.07-5.54-3.89-7.14-10.16-10.4-15.42-1.53-4.76-3.88-9.08-7.04-12.96-2.72-3.93-4.06-9.27-10.09-9.78-1.84-1.16-3.87-1.7-6.01-1.89-2.61-1.98-4.3-1.17-5.94,1.51-8.51,13.84-6.59,31.37,4.91,43.47,1.8,2.83,4.15,5.13,6.91,7.02,2.16,2.6,4.87,4.51,7.82,6.1,1.82,2.25,3.62,2.64,5.68,.2,1.49-1.77,3.18-3.37,4.77-5.05Zm344.17-5.15c13.96-13.95,15.65-35.42,3.59-48-1.59,.62-3.26,1.27-4.94,1.92-3.14,.94-6.77,.69-9.07,3.69-2.89,2.95-5.21,6.31-7,10.04-1.92,1.71-2.65,4.16-3.83,6.31-3.71,6.73-5.27,14.68-12.12,19.64-1.84,1.33-1.37,4.21,.81,6.05,4.42,3.72,8.79,7.51,13.17,11.27,1.14,1.47,2.04,3.7,4.48,1.92,2.56-1.87,5.62-3.15,7.36-6.03,2.08-2.76,6.04-3.43,7.53-6.82ZM186.64,320.49c8.92,7.77,19.56,12,30.95,15.58v-31.41c-4.36-1.41-8.59-2.78-12.83-4.14-6.1-1.66-10.99-5.93-16.99-7.81-6.5-2-6.48-3.89,.29-12.89,6.45,2.87,12.43,6.92,19.38,8.78,8.32,3.95,17.01,6.7,26.16,7.93,12.93,3.18,25.99,3.68,39.15,1.71,12.56-1.29,24.57-4.57,36-9.96,10.37-3.82,19.67-9.71,29.1-15.62,1.63,2.18,2.98,3.98,4.32,5.79,.13,1.4,2.05,2.2,1.37,3.84-2.98,2.08-5.9,4.12-8.81,6.15-9.81,5.16-19.5,10.56-30.01,14.23-1.69,.42-3.82,.29-3.82,2.92,0,10.9,0,21.8,0,32.9,4.95-.37,9.02-1.85,13.05-3.25,13.45-4.67,26.26-10.56,35.58-21.89,6.94-8.44,9.46-17.83,4.75-28.26-.95-2.1-.48-3.72,.33-5.64,1.97-4.64,1.49-9.04-1.82-13-4.24-6.92-10.93-10.62-18.06-13.75-5.23-1.39-9.58-5.16-15.01-5.82-3.73-.45-6.58-1.93-8.79-4.86-3.65-6.24-9.05-10.54-15.53-14.86,.22,5.15-.06,9.28-1.17,13.31-4.74,17.1-19.39,26.09-39.4,24.21-8.03-1.85-14.23-6.71-20.06-12.18-6.26-7.71-6.65-16.86-6.33-26.71-7.43,3.95-13.72,8.85-17.97,15.7-2.68,4.33-6.2,6.41-10.76,7.91-9.08,3-17.58,7.18-24.11,14.46-5.23,5.85-5.9,10.8-2.28,17.76,.97,1.87,.86,3.34,.2,5.13-2.79,7.6-2.18,14.87,2.36,21.69,2.42,5.06,6.15,8.95,10.76,12.04Zm103.13,37c1.47,.34,2.93,.49,4.57-.28v-50.89c-5.16,.47-9.88,1.79-14.62,3-5.56,.53-11.11,1.06-16.52,1.57v46.6c9.03,.3,17.79,.52,26.57,0Zm-64.97-50.19v51.18h30.72v-47.85c-10.41,.29-20.26-2.14-30.72-3.33Z"/>
  <path d="M369.62,328.4c-2.66,13.64,2.92,23.75,14.05,30.94,5.52,3.57,9.11,7.86,10.44,14.35,.69,3.36,2.4,6.51,3.65,9.75-3.02,4.46,1.26,8.01,1.79,12,1.3,9.67,4.17,19.12,4.21,29,.61,15.61-.05,31.21-3.16,46.5-2.97,14.57-7.31,28.79-14.97,41.81-1.95,3.31-4.48,6.58-4.87,10.69-1.66,.88-2.93,2.2-3.88,3.79-5.75,9.67-12.42,18.6-20.68,26.31-1.26,1.18-2.85,2.29-2.54,5.24,11.29-10.39,20.91-21.35,28.1-34.36,13.79-20.62,21.64-43.34,23.99-68,1.96-8.61,1.02-17.37,1.05-26.05,.03-5.92,1.05-12.07-.84-17.76-1.86-5.6,.13-11.79-3.13-17.07-.4-.64,.2-1.59,.96-2.1,.86,.37,1.72,.74,2.58,1.11-1.25,1.28-1.15,2.66-.85,4.39,3.95,22.76,4.3,45.56,.34,68.38-3.52,20.32-10.23,39.43-21.27,56.95-10.73,17.03-24.17,31.6-39.8,44.21-1.62-.1-2.91,.76-4.07,1.67-10.14,7.94-21.54,13.62-33.21,18.85-1.18,.53-2.67,.61-2.86,2.33-5.58,1.86-11.48,2.69-16.88,5.14-3.09,.29-6.17,.66-9.26,.85-2.36,.14-2.93,1.08-1.75,3.11-9.33,1.71-18.67,1.91-28.01,.04,4.63,0,9.26-.08,13.89,.03,3.7,.08,6.29-1.79,9.77-4.95-13.69-.4-26.17-.76-38.65-1.12-.55-.04-1.09-.08-1.64-.11-.19-.26-.31-.54-.36-.86,5.04-.31,10.2-1.44,15.11-.75,7.16,1,14.31,.99,21.38,.53,4.93-.32,10.74,.57,14.61-3.52,6.37-6.73,14.42-11.27,20.11-19.24,6.75-9.45,14.19-18.32,19.15-28.94,2.47-5.29,5.77-10.28,7.6-15.77,3.69-11.04,6.94-22.2,9.63-33.59,3.18-13.48,4.78-27.04,5.25-40.68,.7-20.36-.7-40.61-5.59-60.59-2.42-9.91-4.1-20.05-7.34-29.71-2.61-7.78-5.47-15.65-11.19-21.95,9.36-4.18,18.65-8.43,26.58-15.18,3.7-3.14,6.64-6.89,9.74-10.53,3.09,5.98,8.81,9.69,12.82,14.87Z" style="fill: #7f7f8c;"/>
  <path d="M344.79,568.47c15.63-12.61,29.07-27.18,39.8-44.21,11.04-17.52,17.74-36.64,21.27-56.95,3.96-22.81,3.61-45.61-.34-68.38-.3-1.73-.4-3.11,.85-4.39,2.45,1.69,4.89,3.38,7.34,5.08-2.14,3.36-1.56,7.16-1.03,10.63,2.59,17.24,1.99,34.37-.32,51.6-3.81,28.41-14.66,53.98-31.45,76.88-8.18,11.16-17.35,21.8-29.02,29.77-2.08-.21-3.42,1.34-4.76,2.39-10.82,8.55-22.79,15.05-35.47,20.32-1.63,.42-3.26,.83-4.89,1.25-.34-.34-.68-.67-1.01-1.01,10.04-3.98,19.73-8.69,28.59-14.89,3.59-2.51,7.78-4.34,10.43-8.1Z" style="fill: #040404;"/>
  <path d="M112.74,457.46c.99-.94,1.98-1.87,2.98-2.81,.72,.21,1.03,.72,1.12,1.44,2.15,18.61,7.17,36.46,15.15,53.37,4.73,10.02,9.86,19.92,17.68,28.06,11.75,15.46,25.69,28.57,42,39.14,7.66,4.96,16.1,8.4,24.23,12.43,3.49,3.75,9.07,2.44,12.91,5.35-.68,0-1.35,.01-2.03,.02-13.94-2.45-26.03-9.1-37.94-16.34-5.93-3.6-10.75-8.77-17.13-11.65-11.52-8.87-20.93-19.75-29.31-31.5-12.49-17.51-20.69-37.09-25.94-57.81-1.3-5.14-3.36-10.45-2.58-16.05,.2-1.42-.48-2.52-1.12-3.66Z" style="fill: #080808;"/>
  <path d="M226.76,594.47c.68,0,1.35-.01,2.03-.02,1.11-.05,2.22-.09,3.33-.14,.55,.04,1.09,.08,1.64,.12,.72,.33,1.43,.93,2.17,.96,8.58,.4,17.16,.74,25.74,1.05,2.02,.07,4.04,.01,6.06,.01,.01,.45,.02,.9,.03,1.36-7.42,3.4-15.48,.76-23.16,1.7l-1.84-.13c-4.97-2.92-10.66-2.83-16.08-3.88,0,0,.04,.02,.04,.02,.01-.35,.03-.71,.04-1.06Z" style="fill: #19191a;"/>
  <path d="M226.76,594.47c-.01,.35-.03,.71-.04,1.06-9.72-.86-18.35-5-26.79-9.37-10.24-5.3-20.19-11.16-28.23-19.68,6.38,2.88,11.2,8.05,17.13,11.65,11.91,7.24,23.99,13.9,37.94,16.34Z" style="fill: #1d1d1d;"/>
  <path d="M311.67,591.22c12.68-5.28,24.65-11.77,35.47-20.32,1.33-1.05,2.68-2.6,4.76-2.39-11.28,10.61-24.34,18.2-39.04,22.99-.39-.09-.79-.18-1.18-.28Z" style="fill: #171718;"/>
  <path d="M244.6,599.51c7.68-.94,15.74,1.7,23.16-1.7-.01-.45-.02-.9-.03-1.36-2.02,0-4.04,.06-6.06-.01-8.58-.31-17.16-.65-25.74-1.05-.74-.03-1.45-.63-2.17-.96,12.48,.36,24.96,.73,38.65,1.12-3.49,3.15-6.07,5.03-9.77,4.95-4.63-.1-9.26-.03-13.89-.03-1.37-.39-2.98,.26-4.16-.96Z" style="fill: #1d1d1d;"/>
  <path d="M102.69,342.32c.51,4.71-.56,9.51,.93,14.07-1.9,1.68-3.94,.87-5.82,1.04,.76-5.32,1.69-10.59,4.9-15.11Z" style="fill: #463314;"/>
  <path d="M305.77,591.46c.34,.34,.68,.67,1.01,1.01-1.96,1.89-4.89,1.4-7.02,2.86-3.8,1.77-7.98,1.96-11.97,2.96,0-.61-.01-1.22-.02-1.83,5.4-2.45,11.3-3.27,16.88-5.14,.37,.04,.74,.09,1.12,.13Z" style="fill: #171718;"/>
  <path d="M287.77,596.46c0,.61,.01,1.22,.02,1.83-3.65,.85-7.1,2.73-11.03,2.14-1.18-2.03-.61-2.97,1.75-3.11,3.09-.19,6.18-.56,9.26-.85Z" style="fill: #313134;"/>
  <path d="M226.68,595.51c5.42,1.05,11.11,.95,16.08,3.88-5.48-.81-11.07-1.12-16.08-3.88Z" style="fill: #1d1d1d;"/>
  <path d="M299.76,595.33c2.13-1.46,5.06-.98,7.02-2.86,1.63-.42,3.26-.83,4.89-1.25,.39,.09,.79,.18,1.18,.27-4,2.51-8.27,4.13-13.1,3.84Z" style="fill: #353537;"/>
  <path d="M215.88,589.09c-8.13-4.04-16.56-7.47-24.23-12.43-16.32-10.57-30.25-23.68-42-39.14,.08-.38,.16-.76,.24-1.14,1.43,1.38,3.08,2.6,4.26,4.16,16.8,22.28,39.12,37.1,64.56,47.59,4.88,2.01,10.25,2.84,15.39,4.21-26.78-13.57-43.9-35.58-56.34-61.9-3.01-8.03-5.86-16.13-9.11-24.07-1.47-3.6-.85-7.93-3.89-10.93h0c.21-8.83-3.63-16.9-4.41-25.69-1.57-17.8-3.53-35.49-1.63-53.36-.2-5.19,1.31-10.16,1.98-15.24,3.19-24.47,10.46-47.63,21.97-69.45,.83-1.58,2.39-2.87,2.03-4.94,9.1,6.29,18.92,11.13,29.5,14.29,2.72,.81,3.72,2,3.63,4.86-.2,6.29-.06,12.59-.06,19.56,11,0,21.6,.24,32.19-.06,11.18-.32,22.31-2.36,33.56-1.05,1.31,.15,2.66,.02,3.99,.01q13.38-.1,13.39-13.04c0-1.99,0-3.97,0-6.29,6.63-1.96,13.11-3.88,19.59-5.79,5.72,6.3,8.58,14.17,11.19,21.95,3.24,9.66,4.92,19.8,7.34,29.71,4.88,19.98,6.28,40.23,5.59,60.59-.47,13.64-2.07,27.2-5.25,40.68-2.69,11.39-5.94,22.55-9.63,33.59-1.83,5.49-5.14,10.47-7.6,15.77-4.96,10.63-12.4,19.5-19.15,28.94-5.69,7.97-13.75,12.51-20.11,19.24-3.87,4.09-9.69,3.2-14.61,3.52-7.07,.46-14.21,.47-21.38-.53-4.9-.69-10.06,.44-15.11,.75-5.29-1.45-10.58-2.91-15.87-4.36Z" style="fill: #92929e;"/>
  <path d="M187.9,247.52c-6.48,4.29-13.38,8.01-18.19,14.45-4.58,6.14-5.46,12.85-2.68,19.76,1.3,3.23,.29,6-.45,8.72-1.2,4.44-.32,8.58,.68,12.75,.39,1.65,.39,2.9-.87,4.06-17.38,16.03-30.44,35.12-39.87,57.11-2.65-.96-4.9-1.97-7.25-2.57-2.52-.65-3.53-1.99-3.49-4.6,.2-10.81-.55-21.6-.91-32.41-.6-18.29-.57-36.61-1.23-54.9-.72-19.91-1.67-39.83-3.02-59.7-1.31-19.19-3.29-38.33-4.89-57.49-.46-5.53-2.96-9.39-8.89-11.03,3.85-5.68,8.95-9.13,13.59-12.96,5.77-4.77,6.29-9.23,.9-14.13-2.54-2.31-4.13-5.13-5.51-8.21-2.1-4.71-4.45-9.3-6.7-13.94-5.21-10.74-13.44-17.4-26.04-18.1,1.04-4.51,3.21-7.21,6.19-9.65,10.48,9.68,20.99,19.09,31.99,27.95,2.39,1.92,3.95,4.88,5.86,7.39,4.15,5.45,9.51,5.07,12.41-1.17,5.79-12.49,12.89-24.03,22.93-33.6,16.99-16.18,37.46-25.53,60.05-30.8,14.11-3.29,28.4-4.73,42.9-5.18,23.95-.74,47.29,2,69.95,9.91,29.79,10.39,52.47,28.81,65.77,57.97,3.93,8.61,8.4,9.06,14.04,1.25,6.07-8.39,14.9-13.68,22.28-20.59,4.7-4.41,9.02-9.34,14.96-12.9,3.39,2.47,5.3,6.19,7.04,10.32-2.68,1.79-5.6,2.56-8.46,3.09-4.63,.85-7.7,3.49-10.29,7.18-4.98,7.12-9.34,14.56-12.39,22.72-1.39,3.72-3.98,6.48-6.89,9.04-3.9,3.42-3.63,7.9,.32,11.21,4.43,3.7,9.3,6.95,13.05,12-3.63,2.64-8.29,4.27-8.89,9.42-.44,3.79-.79,7.59-1.1,11.39-1.66,20.33-3.34,40.66-4.91,60.99-.44,5.79-.56,11.61-.91,17.41-.84,13.77-.85,27.59-1.29,41.39-.17,5.31-.7,10.6-.85,15.91-.07,2.67-1.79,3.22-3.78,3.83-7.68,2.35-14.94,5.52-21.3,10.58-2.75,2.19-5.19,4.62-7.42,8.06-4.34-4.35-8.41-8.44-12.5-12.51-1.31-1.3-.77-2.63-.43-4.15,1.33-5.92,1.01-11.82-.86-17.6-.41-1.27-1.14-2.55-.57-3.85,2.39-5.44,1.8-10.76-.79-15.85-2.94-5.78-7.57-10.04-13.08-13.36-3.12-1.88-6.27-3.72-9.41-5.58,2.41-3.47,6.77-3.04,9.98-5.02,14.49-8.98,26.79-19.91,34.01-35.82,3.36-7.4,6.27-14.85,8.19-22.8,2.77-11.51,2.55-23.09,1.19-34.58-1.37-11.54-5.19-22.41-10.98-32.7-5.53-9.83-12.3-18.3-21.56-24.7-1.67-1.16-3.68-2.66-5.79-.46-1.34-.65-2.69-1.3-4.03-1.94-25.15-15.72-49.82-14.29-74.15,1.96-5.41,3.61-9.62,8.55-14.58,13.12-.79-.91-1.3-1.52-1.83-2.11-13.48-14.84-30.12-23.49-50.25-23.92-28.91-.62-56.8,20.54-67.33,49.85-5.75,16.01-7.23,32.27-4.68,48.99,.26,1.68,.53,3.35,.79,5.03-5.62,2.46-3.2,7.37-2.31,10.67,4.42,16.55,14.27,29.91,27.02,40.92,7.91,6.83,17.57,11.1,27.51,14.46Z" style="fill: #323232;"/>
  <path d="M177.76,530.45c12.44,26.32,29.57,48.33,56.34,61.9-5.14-1.37-10.51-2.2-15.39-4.21-25.44-10.48-47.76-25.31-64.56-47.59-1.18-1.57-2.83-2.78-4.26-4.16-2.41-3.57-4.89-7.1-7.22-10.71-9.05-14.04-15.21-29.42-19.57-45.4-2.64-9.68-4.47-19.67-5.25-29.76,3.39-9.01,9.29-16.84,12.26-26.04,.55-1.71,2.11-1.88,3.35-2.65,6.15-3.82,11.66-8.46,14.89-15.03,5.09-10.35,3-21.47-5.15-30.42-3.49-3.83-7.67-6.82-12-9.43,4.69-16.27,23.62-44.47,38.46-57.19,3.67,6.89,9.03,12.25,15.03,17.01,.36,2.07-1.2,3.37-2.03,4.94-11.51,21.83-18.78,44.99-21.97,69.45-.66,5.08-2.18,10.05-1.98,15.24-3.05,.36-2.84,2.62-2.96,4.84-1.02,19.43,1.48,38.64,4.37,57.74,.83,5.46,1.08,11.56,4.63,16.47,0,0,0,0,0,0,.02,.83-.14,1.71,.09,2.47,2.14,6.84,3.81,13.91,6.73,20.4,1.83,4.08,2.19,9.1,6.18,12.12Z" style="fill: #c0c0c7;"/>
  <path d="M242.8,203.55c-4.38,3.84-8.62,7.79-11.13,13.21-.77,1.66-2.52,2.05-3.97,2.83-5.89,3.13-11.52,6.64-16.02,11.67-2.14,.24-4.29,.73-6.43,.68-23.44-.57-46.42-17.93-53.68-40.45,18.4,2.71,36.17,1.43,52.32-8.84,3.63-2.31,8.41-3.48,9.95-8.36,8.25,13.98,18.31,17.64,32.84,11.95,1.27,2.51,3.35,4.09,5.93,5.05,13.43,4.98,27.25,5.72,41.09,2.59,13.85-3.14,25.47-10.32,35.72-20.33,11.33-11.06,18.4-24.31,23.48-38.97,2.11-6.09,2.59-12.71,5.99-18.38,4.72,5.76,7.07,12.72,9.88,19.44,1.37,8.74,2.99,17.4,3.21,26.36,.2,8.24-2.92,15.83-3.08,23.89-3.64,8.23-6.94,16.65-12.99,23.55-3.9,2.8-7.11,6.3-10.13,9.99-3.77,3.56-8.46,5.64-12.93,8.06-7.78,1.29-15.37,3.97-23.43,3.1-.59-.54-1.19-1.09-1.78-1.63-1.97-3.88,3.87-3.89,3.62-7.58-5.89,2.31-9.17,.96-9.84-5.75-.29-2.91-3.92-3.04-6.56-2.96-1.45,.04-2.88,.62-4.33,.96,0,0,.05,.06,.05,.05,2.16-7.11,1.04-8.38-7.13-8.11-1.92-2.7-5.39-2.83-7.8-4.72-1.84-2.9-4.97-2.79-7.81-3.4-4.7-1-9.5,.08-14.12-.36-8.51-.82-8.46-1.31-10.93,6.47Zm121.41-56.53c-1.98,3.83-.28,6.29,.18,8.85,.72-2.61,1.77-5.2-.18-8.85Z" style="fill: #dfdfdf;"/>
  <path d="M207.44,288.59c-6.95-1.86-12.93-5.9-19.38-8.78-6.77,8.99-6.79,10.89-.29,12.89-1.62,7.02-5.67,12.19-11.89,15.74-4.54-6.82-5.16-14.09-2.36-21.69,.66-1.79,.77-3.26-.2-5.13-3.62-6.96-2.96-11.92,2.28-17.76,6.52-7.29,15.03-11.46,24.11-14.46,4.56-1.51,8.08-3.58,10.76-7.91,4.24-6.85,10.54-11.75,17.97-15.7-.32,9.84,.07,18.99,6.33,26.71-4.95,6.12-9.58,12.54-14.95,18.26-5.07,5.38-9.38,11.11-12.37,17.85Z" style="fill: #fdccac;"/>
  <path d="M272.74,298.23c-13.16,1.96-26.21,1.46-39.15-1.71,1.54-.05,2.53-.42,3.42-2.09,1.68-3.13,3.57-6.4,6.17-8.71,6.12-5.43,9.45-12.92,15.16-18.67-1.37-.92-2.45-1.65-3.53-2.37,20.01,1.88,34.66-7.11,39.4-24.21,1.12-4.03,1.39-8.16,1.17-13.31,6.47,4.32,11.87,8.62,15.53,14.86-.12,.48-.08,1.12-.37,1.43-11.91,12.64-21.04,27.47-32.02,40.84-3.27,3.99-7.06,7.71-9.25,12.59,1.38,.54,2.42,.95,3.46,1.36Z" style="fill: #fdc19b;"/>
  <path d="M352.77,266.44c3.31,3.95,3.8,8.36,1.82,13-.82,1.92-1.28,3.54-.33,5.64,4.71,10.43,2.19,19.83-4.75,28.26-9.32,11.34-22.13,17.23-35.58,21.89-4.03,1.4-8.1,2.88-13.05,3.25,0-11.1,0-22,0-32.9,0-2.62,2.13-2.49,3.82-2.92-2.39,1.87-3.18,4.23-3.01,7.31,.27,5.14-.02,10.32,.11,15.47,.06,2.51-.76,5.19,.92,7.87,5.11-4.74,4.69-13.55,12.58-15.56,.19-.05,.34-.57,.35-.88,.16-4.5,3.8-6.68,6.37-9.56,4.98-5.61,10.15-11.07,14.12-17.47,.63-1.01-.64-1.23-1.43-1.41,2.91-2.03,5.82-4.07,8.81-6.15,.69-1.64-1.23-2.45-1.37-3.84,1.96-2.31,3.91-4.6,6.67-6.05,2.37-1.24,3.54-3.36,3.94-5.95Z" style="fill: #fcb484;"/>
  <path d="M272.74,298.23c-1.04-.41-2.08-.82-3.46-1.36,2.19-4.88,5.98-8.6,9.25-12.59,10.98-13.38,20.11-28.2,32.02-40.84,.3-.31,.26-.95,.37-1.43,2.21,2.93,5.06,4.41,8.79,4.86,5.43,.66,9.79,4.42,15.01,5.82-2.38,.99-2.68,3.56-4.07,5.29-7.55,9.39-15.19,18.71-22.82,28.05-1.11,1.36,.65,1.48,.91,2.25-11.43,5.4-23.44,8.67-36,9.96Z" style="fill: #fdbc92;"/>
  <path d="M254.81,264.67c1.08,.72,2.16,1.45,3.53,2.37-5.71,5.76-9.04,13.25-15.16,18.67-2.6,2.31-4.5,5.59-6.17,8.71-.9,1.67-1.89,2.04-3.42,2.09-9.15-1.23-17.83-3.98-26.16-7.93,2.99-6.73,7.3-12.46,12.37-17.85,5.38-5.71,10-12.14,14.95-18.26,5.83,5.47,12.03,10.33,20.06,12.18Z" style="fill: #fcc6a2;"/>
  <path d="M351.74,90.49c2.11-2.2,4.12-.69,5.79,.46,9.26,6.4,16.03,14.87,21.56,24.7,5.79,10.29,9.61,21.17,10.98,32.7,1.36,11.49,1.59,23.07-1.19,34.58-1.92,7.95-4.83,15.4-8.19,22.8-7.22,15.91-19.52,26.84-34.01,35.82-3.21,1.99-7.57,1.56-9.98,5.02-3.28-1.08-6.56-2.15-9.83-3.23,.13-2.59,2.43-1.87,3.79-2.3,19.37-6.18,33.29-18.88,42.95-36.37,11.2-20.28,13.92-41.97,9.03-64.49-3.06-14.09-8.79-27.04-18.95-37.65-4.67-3.33-7.46-8.53-11.95-12.04Z" style="fill: #3b3b3b;"/>
  <path d="M279.72,309.32c4.74-1.21,9.46-2.53,14.62-3v50.89c-1.64,.77-3.1,.61-4.57,.28-4.39-2.17-9.07-.86-13.6-.93-3.54-.05-4.53-1.23-4.47-4.64,.18-9.78,.33-19.58-.03-29.35-.24-6.46-.75-12.53,8.05-13.26Z" style="fill: #f5f5f5;"/>
  <path d="M224.8,307.3c10.46,1.18,20.31,3.62,30.72,3.33v47.85h-30.72v-51.18Zm29.96,27.15c0-5.98-.35-11.98,.11-17.92,.39-5.06-2.24-5.25-5.98-5.13-3.4,.11-6.29-.5-6.27,4.85,.05,12.58,.91,25.19-.46,37.76-.23,2.1,.95,3.44,3.26,3.43,1.83-.01,3.66-.13,5.47,.04,3.17,.3,3.98-1.2,3.91-4.11-.15-6.3-.05-12.61-.05-18.92Z" style="fill: #f2f2f2;"/>
  <path d="M355.9,209.42c6.05-6.9,9.34-15.32,12.99-23.55,2.23-4.16,2.93-8.79,3.41-13.33,1.34-12.51,1.65-24.99-3.54-36.91-2.81-6.73-5.16-13.69-9.88-19.44-1.25-2.24-2.61-4.38-4.77-5.88-.41-2.56-2.03-4.03-4.35-4.88-.35-.65-.71-1.3-1.06-1.95,.68,0,1.37,0,2.05,0,3.6,5.25,10.77,6.32,14,11.99,2.55,3.87,3.05,8.94,7,12,1.26,1.43,.41,3.7,1.99,5,.68,5.5,2.34,10.75,4.01,16h0c.65,7.32-.52,14.72,1,22,0,.33,0,.67,0,1-1.92,3.76-1.77,8.01-2.81,11.99-2.24,8.52-5.89,16.38-10.66,23.71-7.39,11.34-17.04,20.08-29.73,25.24-6.4,2.6-13.44,2.63-19.85,5.1-2.26-1.74-4.32-3.68-5.94-6.05,8.1,1.09,15.77-.39,23.07-3.96,4.48-2.42,9.17-4.5,12.93-8.06,4.46-2.23,7.82-5.58,10.13-9.99Z" style="fill: #303030;"/>
  <path d="M428.78,325.4c5.19,7.71,3.42,16.07,1.63,24.11-3.26,14.66-9.33,28.34-16.09,41.7-.42,.83-.6,3.19-2.54,1.19,0-14.58,.02-29.16,.02-43.75,6.09-6.61,11.57-13.63,15.06-22.02,.37-.89,1.02-1.23,1.92-1.24Z" style="fill: #fcbd93;"/>
  <path d="M446.88,321.51c5.39,1.06,7.14,5.55,8.8,9.81,3.81,9.73,4.28,20.06,4.74,30.34,.36,7.97-.11,15.93-.89,23.87-1.01,.48-.79,2.33-2.53,2.16-3-7.33-6.1-14.66-9-22.08-2.25-5.74-4.23-11.59-6.34-17.39,2.98-8.66,5.46-17.41,5.21-26.7Z" style="fill: #fcbd93;"/>
  <path d="M350.76,103.46c-.68,0-1.37,0-2.05,0-1.06-.97-2.12-1.94-3.18-2.91,.49-.11,1.04-.1,1.45-.34,6.97-4.12,7.25-4.08,13.54,1.44,.86,.75,1.6,2.52,3.17,.86,10.16,10.61,15.9,23.56,18.95,37.65,4.88,22.52,2.16,44.22-9.03,64.49-9.66,17.5-23.58,30.19-42.95,36.37-1.36,.43-3.66-.29-3.79,2.3-2.37-.97-4.74-1.94-7.11-2.9,2.04-.67,4.04-1.46,6.12-1.99,14.44-3.7,27.21-10.28,36.49-22.24,6.45-8.32,12.35-17.08,14.39-27.76,2.54-1.83,2.05-4.82,2.52-7.3,2.21-11.68,3.2-23.51,.67-35.21-2.86-13.2-8.16-25.42-16.12-36.48-3.49-4.85-8.57-7.53-13.08-6.01Z" style="fill: #1e1e1e;"/>
  <path d="M204.76,300.52c4.24,1.37,8.47,2.74,12.83,4.14v31.41c-11.39-3.58-22.03-7.81-30.95-15.58,1.31-.22,2.86,1.27,3.94-.67,3.92-7.02,10.61-12.01,14.18-19.3Z" style="fill: #fcc6a2;"/>
  <path d="M308.74,288.27c-.26-.77-2.02-.89-.91-2.25,7.62-9.33,15.27-18.65,22.82-28.05,1.39-1.73,1.69-4.3,4.07-5.29,7.13,3.13,13.82,6.82,18.06,13.75-.4,2.59-1.57,4.71-3.94,5.95-2.76,1.45-4.72,3.74-6.67,6.05-1.35-1.8-2.69-3.61-4.32-5.79-9.44,5.91-18.73,11.8-29.1,15.62Z" style="fill: #fdb98d;"/>
  <path d="M334.72,288.43c.78,.18,2.05,.4,1.43,1.41-3.98,6.4-9.14,11.87-14.12,17.47-2.56,2.89-6.2,5.07-6.37,9.56-.01,.31-.17,.83-.35,.88-7.89,2-7.47,10.82-12.58,15.56-1.67-2.68-.85-5.36-.92-7.87-.13-5.16,.16-10.33-.11-15.47-.16-3.08,.62-5.44,3.01-7.31,10.51-3.67,20.21-9.07,30.01-14.23Z" style="fill: #fcb88c;"/>
  <path d="M187.9,247.52c-9.94-3.36-19.6-7.63-27.51-14.46-12.75-11.01-22.59-24.37-27.02-40.92-.88-3.3-3.31-8.22,2.31-10.67-.03,1.44,.34,2.76,1.15,3.96,8.98,29.55,26.66,50.26,58.02,57.03,1.16,.25,1.77,.76,1.85,1.92-2.93,1.05-5.87,2.09-8.8,3.14Z" style="fill: #3b3b3b;"/>
  <path d="M63.89,449.63c-1.57,1.11-3.03,1.74-3.21-1.08-.27-4.05-1.17-8.06-.7-12.14,2.18-7.04-.76-14.77,4.55-21.7,4.51-5.89,5.32-14.13,9.41-20.61,1.92,5.79,3.84,11.58,5.76,17.36-1.71,3.76-3.55,7.46-5.11,11.28-3.64,8.93-7.14,17.92-10.7,26.89Z" style="fill: #fcbc92;"/>
  <path d="M438.56,133.42c-1.74,2.88-4.81,4.15-7.36,6.03-2.44,1.79-3.34-.44-4.48-1.92,1.29-14.4-2.86-29.04,1.97-43.27,1.79-3.73,4.1-7.09,7-10.04,.93,2.85,1.13,5.77,1.11,8.76-.08,11.72-.04,23.44-.03,35.17,0,1.95-.39,4.05,1.79,5.27Z" style="fill: #e882a4;"/>
  <path d="M411.74,303.36c1.81-1.26,3.9-.84,5.9-.97,3.32,.02,6.65-.18,9.94,.11,4.71,.42,7.92,2.96,9.23,7.64,1.34,4.8,1.96,9.5-2.21,13.39-2.15-1.51-3.06-5.19-6.81-3.91,.64-1.72,2.89-.65,3.68-2.11-1.4-7.66-5.38-10.86-12.5-10.04-3.61,.41-8.99,5.22-10.02,8.83-1.18,4.15,1.35,6.58,4.07,8.86,3.56,2.97,7.45,2.39,12.76-1.7-.95,3.69-2.69,6.99-5.02,10-1.1-.32-2.2-.93-3.29-.9-10.17,.32-15.78-5.85-14.8-15.89,.61-6.26,4.89-9.66,9.07-13.3Z" style="fill: #656571;"/>
  <path d="M33.74,444.14c-1.86,.74-3.19,.75-3.14-1.88,.2-11.4,.48-22.78,3.12-33.96,.08,1.77,.16,3.53,.29,6.4,6.32-6.97,8.17-15.68,14-21.8,.72,.98,1.29,1.75,1.85,2.52,1.15,2.53,1.55,5.24,1.95,7.96-.02,1.66-.03,3.33-.84,4.86-5.77,10.79-10.71,22.04-17.39,32.33-.97,1.49-.52,2.42,.18,3.58Z" style="fill: #fcbc92;"/>
  <path d="M444.76,80.52c1.67-.65,3.35-1.3,4.94-1.92,12.05,12.58,10.37,34.05-3.59,48-1.3-1.82-1.33-3.93-1.33-6.04,0-9.61-.16-19.23,.09-28.84,.1-3.74-1.18-7.46-.09-11.19Z" style="fill: #ec98b4;"/>
  <path d="M99.85,438.45c-6.47-12.71-10.78-26.12-11.79-40.37-.32-4.55-.45-9.73,4.65-12.6,2.38,7.07,6.88,12.89,11.09,18.88-1.94,1.48-2.09,3.51-2.06,5.76,.09,7.97,.08,15.94,0,23.9-.02,1.65,.86,3.86-1.88,4.42Z" style="fill: #fcbe94;"/>
  <path d="M279.72,309.32c-8.8,.73-8.29,6.79-8.05,13.26,.36,9.77,.21,19.57,.03,29.35-.06,3.4,.93,4.58,4.47,4.64,4.52,.07,9.21-1.24,13.6,.93-8.77,.53-17.54,.31-26.57,0v-46.6c5.41-.51,10.97-1.04,16.52-1.57Z" style="fill: #ececec;"/>
  <path d="M473.68,317.68c.04,.25,.08,.5,.12,.75-.85,.15-1.82,.45-1.87,1.35-.34,6.94-1.16,14,3.72,19.96,.95,1.16,1.95,2.19,2.28,3.76,1.38,6.59,6.83,10.97,9.33,16.96l.6-1.25c1.58,7.79,1.47,15.71,1.74,23.6,.04,1.34-.66,1.71-1.87,1.35-.46-2.33-1.85-4.2-2.94-6.24-5.78-10.9-11.47-21.85-17.19-32.79,2.01-8.36,3.83-16.75,3.07-25.42-.24-2.71,1.2-2.54,2.99-2.04Z" style="fill: #fcbb90;"/>
  <path d="M76.74,123.47c-11.51-12.1-13.43-29.63-4.91-43.47,1.65-2.68,3.33-3.49,5.94-1.51,.48,2.24,1.52,4.53,1.36,6.73-.81,10.88-.09,21.77-.36,32.64-.05,2.09,.53,4.42-2.02,5.61Z" style="fill: #ec9ab5;"/>
  <path d="M204.76,300.52c-3.56,7.29-10.26,12.27-14.18,19.3-1.08,1.94-2.63,.46-3.94,.67-4.61-3.1-8.34-6.99-10.76-12.04,6.21-3.55,10.27-8.72,11.89-15.74,6,1.88,10.89,6.15,16.99,7.81Z" style="fill: #fdc9a8;"/>
  <path d="M151.56,191.49c7.26,22.52,30.24,39.87,53.68,40.45,2.14,.05,4.28-.44,6.43-.68-1.97,2.06-3.94,4.12-5.9,6.18-3.57-1.7-7.5-.73-11.23-1.52-13.63-2.86-24.92-9.72-33.8-20.18-7.15-8.42-15.46-16.74-11.8-29.62,.88,1.79,1.75,3.57,2.63,5.36Z" style="fill: #303030;"/>
  <path d="M444.76,80.52c-1.08,3.73,.19,7.45,.09,11.19-.25,9.61-.08,19.23-.09,28.84,0,2.12,.03,4.22,1.33,6.04-1.5,3.39-5.46,4.07-7.53,6.82-2.18-1.22-1.79-3.32-1.79-5.27,0-11.72-.05-23.45,.03-35.17,.02-3-.18-5.91-1.11-8.76,2.3-3.01,5.93-2.76,9.07-3.69Z" style="fill: #ea8ead;"/>
  <path d="M89.77,379.46c-1.37,1.32-2.75,2.64-4.12,3.96-4.88-2.25-4.29-6.57-3.47-10.47,1.66-7.86,5.69-10.23,16.71-10.56,2.66,0,5.36-.23,7.87,1.02,.79,.56,1.51,1.28,2.38,1.67,8.07,3.58,10.86,17.3,4.48,23.46-4.24,4.09-9.47,4.78-15.04,3.99-1.15-1.57-2.48-3.03-2.7-5.09,1.77,1.74,3.74-.03,5.68,.31,5.75,1.01,9.79-2.64,10.25-8.39,.65-8.03-6.44-13.56-15.82-12.05-6.83,1.1-9.21,6.04-6.21,12.16Z" style="fill: #666672;"/>
  <path d="M83.78,80.37c6.03,.51,7.38,5.86,10.09,9.78-.7,5.01-.46,10.07-.92,15.11-.5,5.44,.4,11.01,.71,16.52,.28,5.09,.18,10.11-2.19,14.8-2.95-1.6-5.66-3.5-7.82-6.1,2.25-.27,2.6-1.22,2.53-3.66-.39-13.23-1.39-26.49,.52-39.69,.44-3.03-.56-5.11-2.92-6.76Z" style="fill: #e985a7;"/>
  <path d="M196.7,244.38c-.07-1.16-.68-1.67-1.85-1.92-31.36-6.77-49.04-27.48-58.02-57.03,3.48,.89,2.41-3.57,4.56-3.98,5.01-.94,4.44-4.73,4.5-8.26,.62,2.08,1.23,4.17,1.85,6.25,.02,.97,.04,1.94,.06,2.92-.15,.8-.02,2.02-.5,2.35-5.95,4.1-3.65,8.95-1.5,13.9,1.17,2.69,2.38,5.5,3.86,7.89,12.42,20.1,29.83,32.54,54.08,33.94-1.66,2.54-4.3,3.35-7.05,3.95Z" style="fill: #1b1b1b;"/>
  <path d="M83.78,80.37c2.36,1.66,3.36,3.73,2.92,6.76-1.91,13.19-.91,26.46-.52,39.69,.07,2.44-.28,3.39-2.53,3.66-2.76-1.89-5.11-4.19-6.91-7.02,2.56-1.19,1.97-3.52,2.02-5.61,.28-10.88-.44-21.76,.36-32.64,.16-2.2-.87-4.48-1.36-6.73,2.14,.19,4.17,.73,6.01,1.89Z" style="fill: #eb8fae;"/>
  <path d="M91.47,136.59c2.37-4.69,2.47-9.72,2.19-14.8-.31-5.51-1.21-11.08-.71-16.52,.46-5.04,.22-10.1,.92-15.11,3.16,3.88,5.51,8.19,7.04,12.96-.13,3.04,.37,6.01,.17,9.13-.41,6.44-1.55,13.11,.84,19.5-1.6,1.68-3.29,3.28-4.77,5.05-2.05,2.44-3.86,2.05-5.68-.2Z" style="fill: #e77ca0;"/>
  <path d="M99.85,438.45c2.74-.56,1.87-2.78,1.88-4.42,.07-7.97,.09-15.94,0-23.9-.03-2.25,.12-4.28,2.06-5.76,1.99,2.02,3.98,4.04,5.97,6.06-1.1,1.8-1.01,3.8-1.01,5.8,.02,7.42,.01,14.85,0,22.27,0,4.62-.02,9.24-.02,13.85-1.19,1.87-2.13,1.1-2.8-.36-2.08-4.49-4.77-8.71-6.09-13.54Z" style="fill: #fcba8e;"/>
  <path d="M203.74,240.44c-24.25-1.39-41.66-13.84-54.08-33.94-1.48-2.39-2.68-5.2-3.86-7.89-2.16-4.95-4.46-9.8,1.5-13.9,.48-.33,.35-1.54,.5-2.35,.32,.36,.65,.72,.97,1.09,.05,.89,.1,1.79,.16,2.68-3.66,12.88,4.66,21.2,11.8,29.62,8.88,10.46,20.17,17.32,33.8,20.18,3.73,.78,7.66-.19,11.23,1.52-.67,1-1.35,1.99-2.02,2.99Z" style="fill: #252525;"/>
  <path d="M428.69,94.26c-4.82,14.24-.67,28.88-1.97,43.27-4.39-3.76-8.75-7.55-13.17-11.27-2.18-1.84-2.65-4.71-.81-6.05,6.84-4.96,8.41-12.91,12.12-19.64,1.19-2.15,1.92-4.6,3.83-6.31Z" style="fill: #e57399;"/>
  <path d="M487.87,359.23l-.6,1.25c-2.51-5.99-7.95-10.37-9.33-16.96-.33-1.57-1.33-2.6-2.28-3.76-4.88-5.96-4.06-13.02-3.72-19.96,.04-.91,1.02-1.2,1.87-1.35,5.14,3.01,6.74,8.38,8.89,13.37,2.92,6.78,3.05,14.11,4.03,21.26,.29,2.09,1.98,3.9,1.14,6.16Z" style="fill: #fcbf98;"/>
  <path d="M376.77,188.45c-2.04,10.68-7.94,19.44-14.39,27.76-9.28,11.96-22.05,18.55-36.49,22.24-2.07,.53-4.08,1.32-6.12,1.99-2.14,.1-3.79-.48-4.05-2.96,6.42-2.47,13.46-2.5,19.85-5.1,12.69-5.16,22.34-13.9,29.73-25.24,4.77-7.33,8.42-15.19,10.66-23.71,1.04-3.98,.89-8.23,2.81-11.99,1.19,.86,.77,1.89,.53,3.07-.93,4.63-1.7,9.28-2.53,13.93Z" style="fill: #272727;"/>
  <path d="M49.85,395.42c-.57-.77-1.13-1.54-1.85-2.52-5.83,6.12-7.68,14.83-14,21.8-.13-2.86-.21-4.63-.29-6.4,.87-9.09,3.33-17.7,8.24-25.44,1.74-2.74,3.83-5.44,7.69-5.35-.84,5.98,.1,11.94,.21,17.91Z" style="fill: #fbbf98;"/>
  <path d="M411.74,303.36c-4.18,3.64-8.46,7.04-9.07,13.3-.98,10.03,4.63,16.21,14.8,15.89,1.09-.03,2.19,.58,3.29,.9-.59,1.59-1.35,3.07-2.76,4.11-7.45,2.04-19.25-4.42-21.15-11.65-2.09-7.93-1.83-15.25,5.91-20.36,2.88-1.19,5.82-2.16,8.99-2.18Z" style="fill: #5a5a64;"/>
  <path d="M379.76,319.43c1.36-2.43,3.6-3.85,5.94-5.14,.18,.98,.59,1.97,.5,2.92-1.25,12.93,5.73,21.09,15.89,27.32,2.94,1.8,6.17,2.88,9.57,.87-1.58,2.83-4.6,4.02-6.9,6.03-15.72-6.29-23.82-13.4-25-32.01Z" style="fill: #42424a;"/>
  <path d="M73.94,394.1c-4.1,6.47-4.9,14.72-9.41,20.61-5.31,6.93-2.37,14.66-4.55,21.7-.42-6.01-.47-12.01,.02-18.02,1.58-4.96,2.05-10.04,1.68-15.22,.86-8.35,3.13-16.03,10.46-22.17,.65,3.16,1.19,5.79,1.74,8.42,.02,1.56,.05,3.12,.07,4.68Z" style="fill: #fbbf99;"/>
  <path d="M379.76,319.43c1.18,18.61,9.28,25.72,25,32.01-1.14,2.01-3.33,2.69-5.04,3.98-5.59,.03-9.68-3.32-13.1-6.91-5.43-5.72-11.92-11.09-11.9-20.14,.77-3.49,2.66-6.35,5.04-8.94Z" style="fill: #37373d;"/>
  <path d="M123.77,368.42c3.9,1.02,7.19,3.08,10.08,5.84-1.45,3.8,1.06,7.52-.19,11.54-3.63,11.71-11.89,18.11-23,21.68-1.96-1.37-3.72-2.94-4.97-5.02,4.7-.29,8.93-1.24,12.93-4.37,9.24-7.25,13.36-20.96,5.14-29.69Z" style="fill: #4a4a53;"/>
  <path d="M139.74,379.55c2.63,1.99,4.27,4.63,5.07,7.81-.03,2.8-.08,5.5-1.52,8.13-5.15,9.4-12.34,16.4-22.59,20-2.38-.75-4.43-1.98-5.9-4.06,15.66-4.59,23.9-14.44,24.93-31.88Z" style="fill: #38393e;"/>
  <path d="M139.74,379.55c-1.03,17.43-9.27,27.28-24.93,31.88-1.72-.96-3.08-2.28-4.14-3.93,11.11-3.58,19.37-9.98,23-21.69,1.25-4.02-1.27-7.74,.19-11.54,2.91,.7,4.13,3.3,5.89,5.29Z" style="fill: #424249;"/>
  <path d="M123.77,368.42c8.22,8.72,4.1,22.44-5.14,29.69-4,3.13-8.23,4.08-12.93,4.37-1.48-.97-2.68-2.16-3.13-3.95,1.02-.51,2.03-1.43,3.06-1.46,10.1-.31,14.08-6.71,16.39-13.2,2.24-6.3-.42-13.66-6.26-18.41,2.96,.21,5.52,1.49,8,2.97Z" style="fill: #55555f;"/>
  <path d="M98.89,362.38c-11.02,.34-15.05,2.7-16.71,10.56-.82,3.9-1.41,8.22,3.47,10.47-.4,2.58-3.32,4.11-2.9,7.03-3.02,.28-4.55-1.6-5.43-4.04-.93-2.57-1.54-5.25-2.28-7.89-.44-.98-.88-1.95-1.32-2.93-2.59-4.62,1-8.2,2.04-12.21,7.65-1.64,15.32-2.91,23.13-.99Z" style="fill: #585862;"/>
  <path d="M434.6,323.53c4.17-3.89,3.56-8.59,2.21-13.39-1.31-4.68-4.52-7.22-9.23-7.64-3.29-.29-6.63-.09-9.94-.11,1-2.86,3.12-.72,4.53-.77,6.2-.22,12.46-.84,18.59,.81,4.43,2.56,6.56,8.13,5.06,13.16-.04,.26-.07,.53-.09,.8-.36,.36-.71,.72-1.07,1.08-1,.86-1.04,2.06-.87,3.16,.84,5.41-2.29,7.65-6.87,8.78-.77-1.96-1.55-3.92-2.32-5.89Z" style="fill: #5a5964;"/>
  <path d="M402.75,305.54c-7.73,5.11-7.99,12.43-5.91,20.36,1.9,7.23,13.71,13.69,21.15,11.65-.45,1.77-1.62,2.97-3.07,3.97-3.36,2.73-6.15,.04-9.16-.91-13.89-4.39-19.05-21.39-12.04-31.28,2.68-2.04,5.75-3.14,9.02-3.79Z" style="fill: #52525b;"/>
  <path d="M115.77,365.45c5.84,4.75,8.49,12.11,6.26,18.41-2.3,6.49-6.28,12.89-16.39,13.2-1.04,.03-2.04,.95-3.06,1.46-2.02-1.54-3.25-3.61-4.01-6,5.58,.78,10.81,.1,15.05-3.99,6.38-6.16,3.6-19.88-4.48-23.46-.87-.39-1.59-1.1-2.38-1.67,3.19-.15,6.15,.73,9.01,2.05Z" style="fill: #5c5c66;"/>
  <path d="M393.73,309.33c-7.01,9.88-1.85,26.89,12.04,31.28,3.01,.95,5.8,3.64,9.16,.91-.46,1.83-1.68,3.02-3.28,3.89-3.4,2.01-6.63,.93-9.56-.87-10.16-6.23-17.14-14.39-15.89-27.32,.09-.95-.32-1.95-.5-2.92,2.26-2.32,4.89-4.06,8.03-4.96Z" style="fill: #4a4a52;"/>
  <path d="M120.71,415.49c10.24-3.6,17.43-10.6,22.59-20,1.44-2.63,1.5-5.33,1.52-8.13,6.22,12.92-5.87,32.19-20.05,31.96-1.35-1.28-2.7-2.56-4.06-3.83Z" style="fill: #2f2e34;"/>
  <path d="M89.77,379.46c-3-6.12-.62-11.06,6.21-12.16,9.38-1.51,16.47,4.02,15.82,12.05-.47,5.76-4.5,9.4-10.25,8.39-1.94-.34-3.91,1.42-5.68-.31-.68-1.02-1.36-2.03-2.04-3.05-.1-.97-.19-1.93-.29-2.9,1.09,.7,2.13,1.51,3.28,2.08,3.55,1.73,6.91,.86,9.68-1.53,2.29-1.97,1.51-4.65,.09-6.81-1.98-3.02-4.31-4.55-8.62-4.04-5.88,.69-5.12,4.99-6.29,8.45-.64-.05-1.27-.11-1.91-.16Z" style="fill: #6d6d79;"/>
  <path d="M425.78,323.45c-5.31,4.1-9.19,4.67-12.76,1.7-2.72-2.27-5.25-4.71-4.07-8.86,1.03-3.61,6.41-8.42,10.02-8.83,7.12-.82,11.1,2.39,12.5,10.04-.79,1.46-3.03,.4-3.68,2.11-.59,.82-1.25,1.62-1.08,2.74-.31,.36-.62,.72-.93,1.08Zm.98-5.99c-.11-4.12-2-6.04-5.18-6.01-3.8,.04-7.92,3.16-7.74,6.2,.22,3.76,3.02,4.86,6.21,4.73,3.56-.14,6.4-1.52,6.71-4.92Z" style="fill: #706f7c;"/>
  <path d="M403.79,393.44c-.76,.51-1.36,1.46-.96,2.1,3.26,5.28,1.27,11.47,3.13,17.07,1.89,5.69,.87,11.84,.84,17.76-.04,8.68,.91,17.44-1.05,26.05-1.78-.17-2.17-1.35-1.83-2.81,1.82-7.81,.46-15.72,.8-23.57,.08-1.87,.76-3.98-.95-5.61-.05-9.88-2.92-19.33-4.21-29-.54-4-4.81-7.54-1.79-12,2.01,3.33,4.02,6.66,6.03,9.99Z" style="fill: #9494a0;"/>
  <path d="M63.89,449.63c3.56-8.97,7.06-17.96,10.7-26.89,1.56-3.82,3.4-7.52,5.11-11.28,1.41,2.64,2.83,5.28,4.24,7.92-1.09,.16-2.45-.18-2.94,1.25-2.25,6.5-4.56,12.97-7.78,19.08-.72,1.37-.8,2.89,.86,3.87-2.89,2.86-6.15,5.11-10.18,6.05Z" style="fill: #fbab76;"/>
  <path d="M374.72,328.37c-.02,9.05,6.46,14.42,11.9,20.14,3.42,3.59,7.51,6.94,13.1,6.91-2.73,2.92-6.28,3.2-9.96,3.08-8.61-4.81-14.92-11.39-16.29-21.61-.39-2.89-.2-5.83,1.26-8.52Z" style="fill: #2e2d33;"/>
  <path d="M101.93,131.74c-2.4-6.39-1.25-13.05-.84-19.5,.2-3.12-.3-6.09-.17-9.13,3.26,5.26,4.86,11.53,10.4,15.42,2.09,1.46,1.52,4.3-.52,6.07-2.87,2.48-5.9,4.77-8.86,7.14Z" style="fill: #e37097;"/>
  <path d="M117.94,439.83c-.83,2.58-2.1,4.9-4.13,6.74-1.73-2.76-2.2-5.75-2.08-8.99,.3-8.13-.67-16.32,1.17-24.38,2.29,1.72,4.58,3.44,6.88,5.16-1.09,1.22-2.23,2.32-2.05,4.26,.55,5.72-1.03,11.47,.21,17.19Z" style="fill: #fca46c;"/>
  <path d="M91.67,379.63c1.17-3.46,.41-7.76,6.29-8.45,4.31-.5,6.64,1.02,8.62,4.04,1.42,2.17,2.2,4.84-.09,6.81-2.77,2.39-6.13,3.26-9.68,1.53-1.16-.56-2.19-1.38-3.28-2.08-.62-.62-1.24-1.24-1.86-1.86Z" style="fill: #757481;"/>
  <path d="M441.67,348.21c2.1,5.8,4.09,11.65,6.34,17.39,2.9,7.41,6,14.75,9,22.08,1.74,.17,1.52-1.68,2.53-2.16v4.72c-4.01-.41-6.99-1.93-9.69-4.14,2.45-1.23,1.2-2.81,.56-4.51-3.68-9.7-8.57-18.96-10.67-29.24,.29-1.55,.89-2.95,1.94-4.15Z" style="fill: #fcb281;"/>
  <path d="M117.86,450.5c.78,10.09,2.61,20.08,5.25,29.76,4.36,15.98,10.51,31.37,19.57,45.4,2.33,3.62,4.81,7.15,7.22,10.71-.08,.38-.16,.76-.24,1.14-7.82-8.13-12.95-18.03-17.68-28.06-7.98-16.91-12.99-34.76-15.15-53.37-.08-.72-.4-1.23-1.12-1.44-.01-1.76,.71-3.13,2.14-4.14Z" style="fill: #4d4d50;"/>
  <path d="M33.74,444.14c-.7-1.16-1.14-2.09-.18-3.58,6.68-10.29,11.62-21.54,17.39-32.33,.82-1.53,.82-3.19,.84-4.86,1.17,1.81,1.67,3.85,2.06,5.92-.03,.72-.06,1.43-.09,2.15-2.21,2.47-4.6,4.93-5.48,8.17-1.1,4.06-2.93,7.56-5.34,11.03-1.81,2.6-2.2,6.1-5.03,8.26-1.73,1.32,.46,2.21,.82,3.3-1.46,1.17-3.18,1.67-5,1.93Z" style="fill: #fbb281;"/>
  <path d="M411.8,348.66c0,14.58-.02,29.16-.02,43.75-1.8-.88-3.09-2.26-3.98-4.03,1.22-1.95,1.36-4.2,.83-6.23-.81-3.13-.27-6.08-.15-9.18,.27-6.84,1.4-13.81-.73-20.59,1.07-1.54,2.4-2.8,4.05-3.71Z" style="fill: #fbb181;"/>
  <path d="M439.73,352.36c2.1,10.28,6.99,19.54,10.67,29.24,.65,1.7,1.89,3.28-.56,4.51-1.34-.41-2.48-1.1-3.24-2.33-1.63-4.56-2.92-9.28-5-13.63-1.74-3.63-1.97-8.17-5.79-10.69,1.3-2.37,2.61-4.73,3.91-7.1Z" style="fill: #fba66e;"/>
  <path d="M467.61,345.15c5.72,10.93,11.41,21.88,17.19,32.79,1.08,2.04,2.48,3.91,2.94,6.24-2.15-.08-4.05-.95-5.94-1.87,2.44-2.12,.28-3.8-.64-5.45-4.18-7.44-9.47-14.3-11.66-22.77-.55-2.11-2.1-2.85-4.16-2.75,.15-1.27,.31-2.55,.46-3.82,.6-.79,1.21-1.57,1.81-2.36Z" style="fill: #fcb282;"/>
  <path d="M112.9,413.21c-1.83,8.06-.87,16.25-1.17,24.38-.12,3.23,.35,6.23,2.08,8.99-1.12,2.43-2.74,4.41-5.07,5.77,0-4.62,.02-9.24,.03-13.85,0-7.42,.01-14.85,0-22.27,0-2-.1-4,1.01-5.8,1.34,.6,2.34,1.58,3.14,2.79Z" style="fill: #fcaf7e;"/>
  <path d="M445.82,315.6c1.51-5.03-.63-10.6-5.06-13.16,4.89-.01,9.46,1.46,14,3.06,1.76,3.21,.85,6.68,.91,10.05,.03,1.83-1.47,1.84-2.81,1.85-2.24-1.01-4.36-2.54-7.05-1.8Z" style="fill: #4a4a52;"/>
  <path d="M51.71,375.45c-.59-5.28,3.6-5.81,7.04-7.09-3.74,6.22-2.83,13.79,2.04,17.1-1.02,2.66-2.04,5.32-3.06,7.98-1.99-.14-3.3-1.28-3.77-3.09-.4-1.55-.39-3.19-2.2-3.9-.02-3.67-.03-7.33-.05-11Z" style="fill: #323237;"/>
  <path d="M75.76,363.37c-1.04,4.01-4.64,7.59-2.04,12.21-3.06-.18-5.42,1.62-7.98,2.85-2.28-.45-3.02-1.98-2.42-4.02,.77-2.63,.26-5.29,.46-7.92,3.84-1.64,7.68-3.26,11.98-3.12Z" style="fill: #484850;"/>
  <path d="M38.73,442.21c-.36-1.1-2.55-1.98-.82-3.3,2.83-2.17,3.22-5.67,5.03-8.26,2.41-3.46,4.24-6.97,5.34-11.03,.88-3.24,3.26-5.7,5.48-8.17-.26,3.57,.92,7.4-1.39,10.6-4.04,5.59-6.46,12.01-9.59,18.07-1.16,1.07-2.52,1.75-4.05,2.09Z" style="fill: #fba973;"/>
  <path d="M290.53,213.61c1.44-.34,2.88-.92,4.33-.96,2.64-.07,6.27,.06,6.56,2.96,.66,6.71,3.95,8.06,9.84,5.75,.24,3.69-5.59,3.7-3.62,7.58-4.12-2.99-8.03-6.28-12.63-8.55-2.82-1.4-3.26-4.33-4.47-6.78Z" style="fill: #dfdfdf;"/>
  <path d="M461.77,331.44c-1.36-2.99-2.72-5.99-4.08-8.98,1.61,.77,3.66,1.29,3.79-1.06,.25-4.28,2.81-8.56,.28-12.89,3.2,.74,6.53,1.36,6.02,5.89,0,1.81,.28,3.69-.09,5.42-.93,4.37-1.72,8.89-5.93,11.62Z" style="fill: #35353a;"/>
  <path d="M465.34,351.33c2.06-.1,3.61,.64,4.16,2.75,2.19,8.47,7.49,15.33,11.66,22.77,.93,1.65,3.08,3.33,.64,5.45-1.7-1.22-3.41-2.45-5.11-3.67-1.96-7.91-6.44-14.53-10.85-21.18,.12-2.06-1.63-3.98-.49-6.12Z" style="fill: #fdaa74;"/>
  <path d="M403.76,382.46c-1.85-2.4-3.61-4.84-4.02-7.96,2.72-3.42,2.73-12.64,.02-16.1,1.67-1.22,3.34-2.45,5.01-3.67,1.82,7.78,.63,15.68,1.04,23.52,.1,1.92-.91,3.03-2.04,4.21Z" style="fill: #fca065;"/>
  <path d="M63.78,366.49c-.2,2.63,.31,5.29-.46,7.92-.6,2.05,.14,3.57,2.42,4.02-1.65,2.34-3.3,4.68-4.95,7.02-4.87-3.3-5.78-10.87-2.04-17.1,1.47-1.18,3.19-1.69,5.03-1.87Z" style="fill: #3c3d43;"/>
  <path d="M461.77,308.51c2.53,4.33-.03,8.61-.28,12.89-.14,2.35-2.19,1.83-3.79,1.06-1.61-1.69-3.22-3.38-4.82-5.07,1.34,0,2.84-.02,2.81-1.85-.06-3.36,.85-6.84-.91-10.05,2.65,.27,4.91,1.45,7,3.01Z" style="fill: #3d3d44;"/>
  <path d="M403.76,382.46c1.13-1.18,2.14-2.3,2.04-4.21-.41-7.84,.78-15.74-1.04-23.52,.99-.79,1.99-1.57,2.98-2.36,2.13,6.79,1,13.75,.73,20.59-.12,3.1-.66,6.05,.15,9.18,.52,2.03,.39,4.28-.83,6.23-1.83-1.64-3.26-3.55-4.03-5.91Z" style="fill: #fca973;"/>
  <path d="M465.83,357.46c4.41,6.65,8.9,13.27,10.85,21.18-7.11-1.67-10.93-6.28-10.95-13.25,0-2.64,.06-5.29,.1-7.93Z" style="fill: #f79f64;"/>
  <path d="M42.79,440.12c3.13-6.06,5.55-12.47,9.59-18.07,2.31-3.21,1.13-7.04,1.39-10.6,.03-.72,.06-1.43,.09-2.15,.28,.09,.56,.19,.83,.32-.09,6.47-.34,12.94-.22,19.41,.06,3.05-1.88,4.47-3.83,5.95-2.49,1.89-4.82,4.07-7.85,5.15Z" style="fill: #f59c61;"/>
  <path d="M74.07,443.58c-1.66-.99-1.58-2.5-.86-3.87,3.21-6.11,5.52-12.58,7.78-19.08,.49-1.42,1.85-1.08,2.94-1.24,.54,.47,1.08,.95,1.62,1.42,.1,.47,.2,.94,.3,1.42-.68,.9-1.55,1.72-2.01,2.72-1.95,4.28-5.37,8.13-4.11,13.39-2.19,1.43-2.73,4.64-5.68,5.25Z" style="fill: #faa063;"/>
  <path d="M407.75,352.37c-.99,.79-1.99,1.57-2.98,2.36-1.67,1.22-3.34,2.45-5.01,3.67-1.9,.65-3.52,1.74-4.89,3.2-.27-3.38-3.92-1.21-5.1-3.1,3.68,.13,7.22-.16,9.96-3.08,1.71-1.29,3.9-1.97,5.04-3.98,2.3-2.01,5.32-3.2,6.9-6.03,1.59-.87,2.82-2.06,3.27-3.89,1.45-.99,2.62-2.2,3.07-3.97,1.41-1.04,2.18-2.51,2.76-4.11,2.32-3,4.06-6.3,5.02-10,.31-.36,.62-.72,.93-1.08-.1,1.55,1.45,1.97,2.06,3.04-.9,0-1.55,.34-1.92,1.24-3.49,8.38-8.97,15.41-15.06,22.02-1.64,.92-2.98,2.17-4.05,3.71Z" style="fill: #1a110f;"/>
  <path d="M112.9,413.21c-.8-1.21-1.8-2.19-3.14-2.79-1.99-2.02-3.98-4.04-5.97-6.06-4.21-5.99-8.71-11.81-11.09-18.88,.37-.36,.74-.73,1.11-1.09,.68,1.02,1.36,2.03,2.04,3.05,.22,2.06,1.56,3.53,2.7,5.09,.76,2.39,1.98,4.46,4,6,.44,1.79,1.64,2.98,3.13,3.95,1.25,2.08,3.01,3.65,4.97,5.02,1.06,1.65,2.43,2.97,4.14,3.93,1.47,2.08,3.52,3.31,5.9,4.06,1.35,1.28,2.7,2.56,4.06,3.83-.06,.48-.12,.96-.18,1.45-1.6-.8-3.2-1.6-4.81-2.4-2.29-1.72-4.58-3.44-6.88-5.16Z" style="fill: #1c1310;"/>
  <path d="M119.78,418.38c1.6,.8,3.2,1.6,4.81,2.4-.31,7.02-3.3,13.1-6.64,19.06-1.23-5.72,.34-11.47-.21-17.19-.18-1.94,.96-3.04,2.05-4.26Z" style="fill: #f89454;"/>
  <path d="M435.82,359.46c3.82,2.52,4.05,7.06,5.79,10.69,2.08,4.35,3.37,9.07,5,13.63-3.64-2.07-6.55-4.95-9.07-8.26,.93-.2,2.32-.32,1.72-1.66-1.7-3.84-3.63-7.58-5.47-11.37,.38-.94,.75-1.87,1.13-2.81,.31-.05,.61-.12,.91-.22Z" style="fill: #fa9d5f;"/>
  <path d="M435.82,359.46c-.3,.1-.6,.17-.91,.22-.78-1.72-2.08-3.43-.19-5.25,3.7-1.4,3.78-5.05,4.98-8,1.4-4.3,3.95-8.25,3.94-12.98,1.41-5.26,1.31-10.62,1.01-15.98,.36-.36,.71-.72,1.07-1.08,.3,1.72-.67,3.73,1.15,5.12,.25,9.29-2.23,18.05-5.21,26.7-1.05,1.19-1.64,2.6-1.94,4.15-1.3,2.37-2.61,4.73-3.91,7.1Z" style="fill: #18100d;"/>
  <path d="M461.77,331.44c4.21-2.73,5-7.25,5.93-11.62,.37-1.74,.08-3.61,.09-5.42,1.57,1.4,.75,3.31,1.04,4.98,.24,7.05-.5,13.99-2.2,20.83-.35,1.41-.69,3.65-2.84,1.21-.67-3.33-1.34-6.65-2.02-9.98Z" style="fill: #2b2a2f;"/>
  <path d="M79.75,438.33c-1.27-5.27,2.16-9.11,4.11-13.39,.46-1,1.33-1.82,2.01-2.72,4.23,3.26,4.13,6.6,.27,10.11-2.16,1.96-3.48,4.82-6.38,6.01Z" style="fill: #f79453;"/>
  <path d="M242.8,203.55c2.47-7.78,2.42-7.29,10.93-6.47,4.62,.45,9.41-.64,14.12,.36,2.84,.6,5.97,.5,7.81,3.4-11.41-4.63-22.34-3.44-32.86,2.71Z" style="fill: #dfdfdf;"/>
  <path d="M85.56,420.8c-.54-.47-1.08-.95-1.62-1.42-1.41-2.64-2.83-5.28-4.24-7.92-1.92-5.79-3.84-11.58-5.76-17.36-.02-1.56-.05-3.12-.07-4.68,1.32-1.11,.65-2.68,.95-4.03,1.75,4.51,.82,9.61,3.04,14.02,.71,3.77,1.97,7.36,3.86,10.67,.73,1.28,.4,3.83,3.11,3.35,1.29,2.36,2.24,4.74,.73,7.38Z" style="fill: #1e1513;"/>
  <path d="M77.85,399.41c-2.22-4.41-1.29-9.51-3.04-14.02,.07-2.29,.15-4.58,.22-6.87,.75,2.63,1.36,5.32,2.28,7.89,.88,2.44,2.41,4.32,5.43,4.04-.04,1.34-.08,2.68-.12,4.02-1.71,1.48-.11,3.87-1.61,5.62-.99-.21-2.08-.45-3.16-.68Z" style="fill: #4f4f58;"/>
  <path d="M394.86,361.6c1.38-1.45,2.99-2.55,4.89-3.2,2.71,3.46,2.7,12.67-.02,16.1-2.6-3.93-3.21-8.62-4.88-12.9Z" style="fill: #f69352;"/>
  <path d="M463.79,341.42c2.15,2.44,2.49,.2,2.84-1.21,1.7-6.83,2.44-13.78,2.2-20.83,1.33-1.39,1.82-5.17,4.85-1.7-1.8-.49-3.23-.67-2.99,2.04,.75,8.68-1.07,17.07-3.07,25.42l-1.81,2.36c-2.2-1.53-2.19-3.78-2.01-6.09Z" style="fill: #110c0b;"/>
  <path d="M369.62,328.4c-4.01-5.18-9.74-8.89-12.82-14.87,.51-1.46,1.2-2.56,2.72-.96,3.44,3.59,6.82,7.24,10.25,10.84,1.67,1.75,.65,3.35-.16,4.99Z" style="fill: #8e8d99;"/>
  <path d="M54.69,409.62c-.27-.12-.55-.23-.83-.32-.39-2.08-.89-4.12-2.06-5.92-.39-2.71-.79-5.43-1.95-7.96-.11-5.97-1.05-11.93-.21-17.91,.69-.69,1.38-1.38,2.07-2.07,.01,3.67,.03,7.33,.05,11-.34,6.65,.72,13.01,3.96,18.91-.34,1.42-.68,2.84-1.02,4.26Z" style="fill: #140d0a;"/>
  <path d="M444.66,317.47c.3,5.37,.4,10.72-1.01,15.98-2.03,1.22-2.21,5.17-5.87,3.99-.28-2.68-.57-5.35-.85-8.03,4.58-1.13,7.71-3.37,6.87-8.78-.17-1.11-.14-2.31,.87-3.16Z" style="fill: #4e4e57;"/>
  <path d="M55.71,405.35c-3.23-5.9-4.29-12.26-3.96-18.91,1.81,.7,1.8,2.35,2.2,3.9,.47,1.81,1.78,2.96,3.77,3.09-.13,4.07-2.39,7.77-2.02,11.92Z" style="fill: #29292d;"/>
  <path d="M77.85,399.41c1.08,.23,2.17,.46,3.16,.68,1.5-1.76-.1-4.14,1.61-5.62-.09,6.42,.92,12.71,2.2,18.97-2.71,.47-2.38-2.07-3.11-3.35-1.89-3.31-3.16-6.9-3.86-10.67Z" style="fill: #3d3c43;"/>
  <path d="M433.78,362.49c1.84,3.78,3.77,7.52,5.47,11.37,.59,1.35-.79,1.46-1.72,1.66-1.37-1.39-2.69-2.84-4.13-4.15-3.45-3.14-3.21-6.07,.38-8.88Z" style="fill: #f79251;"/>
  <path d="M437.78,337.44c3.66,1.18,3.84-2.77,5.87-3.99,0,4.73-2.54,8.68-3.94,12.98-1.01,.34-2.03,.68-3.04,1.02,.55-3.31-.84-6.84,1.11-10Z" style="fill: #43434b;"/>
  <path d="M283.46,205.56c8.17-.28,9.29,1,7.13,8.11-2.38-2.7-4.75-5.4-7.13-8.11Z" style="fill: #dfdfdf;"/>
  <path d="M332.84,227.47c-7.3,3.58-14.96,5.06-23.07,3.96-.17-.27-.29-.55-.36-.86,8.06,.86,15.65-1.81,23.43-3.1Z" style="fill: #dfdfdf;"/>
  <path d="M436.67,347.45c1.01-.34,2.03-.68,3.04-1.02-1.2,2.95-1.29,6.6-4.98,8,.65-2.33,1.3-4.66,1.94-6.99Z" style="fill: #333338;"/>
  <path d="M61.67,403.17c.38,5.18-.1,10.26-1.68,15.22-.13-5.15,.3-10.23,1.68-15.22Z" style="fill: #fcbc92;"/>
  <path d="M403.77,424.45c1.71,1.63,1.03,3.74,.95,5.61-.34,7.85,1.02,15.76-.8,23.57-.34,1.45,.05,2.64,1.83,2.81-2.35,24.66-10.19,47.38-23.99,68-.33-.33-.66-.65-1-.98,.39-4.12,2.92-7.39,4.87-10.69,7.67-13.02,12.01-27.24,14.97-41.81,3.11-15.28,3.77-30.88,3.16-46.5Z" style="fill: #8c8c98;"/>
  <path d="M380.76,523.45c.33,.33,.66,.65,1,.98-7.18,13-16.81,23.97-28.1,34.36-.31-2.95,1.28-4.06,2.54-5.24,8.26-7.7,14.93-16.64,20.68-26.31,.95-1.59,2.22-2.91,3.88-3.79Z" style="fill: #81818e;"/>
  <path d="M305.77,591.46c-.37-.04-.74-.09-1.12-.13,.19-1.72,1.68-1.8,2.86-2.33,11.66-5.23,23.07-10.92,33.21-18.85,1.15-.9,2.45-1.76,4.07-1.67-2.65,3.76-6.84,5.59-10.43,8.1-8.86,6.2-18.55,10.91-28.59,14.89Z" style="fill: #45454a;"/>
  <path d="M215.88,589.09c5.29,1.45,10.58,2.91,15.87,4.36,.05,.31,.17,.6,.36,.86-1.11,.05-2.22,.09-3.33,.14-3.83-2.92-9.42-1.61-12.91-5.35Z" style="fill: #1d1d1d;"/>
  <path d="M164.76,495.45c-3.55-4.91-3.8-11.01-4.63-16.47-2.9-19.09-5.39-38.31-4.37-57.74,.12-2.22-.09-4.48,2.96-4.84-1.9,17.87,.06,35.57,1.63,53.36,.78,8.79,4.62,16.86,4.41,25.69Z" style="fill: #a8a7b0;"/>
  <path d="M177.76,530.45c-3.99-3.02-4.35-8.04-6.18-12.12-2.92-6.5-4.59-13.56-6.73-20.4-.24-.76-.07-1.65-.09-2.47,3.04,3.01,2.42,7.33,3.89,10.93,3.25,7.93,6.1,16.03,9.11,24.07Z" style="fill: #a8a7b0;"/>
  <path d="M134.89,176.44c-2.55-16.72-1.07-32.99,4.68-48.99,10.54-29.31,38.42-50.47,67.33-49.85,20.13,.43,36.77,9.08,50.25,23.92,.53,.58,1.04,1.19,1.83,2.11,4.96-4.56,9.18-9.5,14.58-13.12,24.33-16.25,49-17.67,74.15-1.96-1.82,3.61-5.12,5.71-8.21,8.03-2.39-1.08-4.76-2.22-7.19-3.22-23.8-9.8-50.82-1.05-66.64,21.57-2.13,3.04-4.2,6.12-6.52,9.5-2.36-3.48-4.31-6.57-6.47-9.51-10.88-14.82-24.97-24.42-43.74-25.41-36.21-1.9-59.43,31.25-62.29,57.7-2.09,.69-1.84,2.5-1.85,4.09-.03,3.29,.06,6.58,.1,9.86-.06,2.15-.2,4.3-.18,6.45,.05,6.48-2.68,8.95-9.84,8.82Z"/>
  <path d="M339.51,96.58c3.08-2.32,6.38-4.42,8.21-8.03,1.34,.65,2.69,1.3,4.03,1.94,4.49,3.51,7.28,8.7,11.95,12.04-1.58,1.66-2.32-.11-3.18-.86-6.29-5.52-6.57-5.56-13.54-1.44-.41,.24-.96,.23-1.45,.34-.54-.16-1.09-.33-1.63-.49-.77-1.01-1.76-1.69-2.99-1.99-.47-.5-.93-1-1.4-1.5Z" style="fill: #0f0f0f;"/>
  <path d="M134.89,176.44c7.16,.13,9.9-2.34,9.84-8.82-.02-2.15,.12-4.3,.18-6.45,.33,4.01,.66,8.02,.99,12.03-.06,3.53,.51,7.32-4.5,8.26-2.15,.41-1.08,4.86-4.56,3.98-.8-1.2-1.18-2.52-1.15-3.96-.27-1.68-.53-3.35-.8-5.03Z" style="fill: #0c0c0c;"/>
  <path d="M246.68,186.23c-14.54,5.69-24.59,2.04-32.84-11.95-1.02-3.88-1.27-7.84-1.18-11.83,1.07-2.99,2.15-5.98,3.22-8.97,8.49-9.75,17.29-12.75,27.23-9.27,12.91,4.51,18,16.54,13.48,31.85-.94,1.45-1.88,2.91-2.83,4.36-2.36,1.94-4.72,3.88-7.08,5.81Zm-12.95-26.85c-.3-2.93-1.64-4.98-4.88-5.1-2.92-.11-4.76,1.41-5.07,4.31-.34,3.19,1.47,5.16,4.47,5.46,3.09,.31,4.85-1.61,5.49-4.67Z"/>
  <path d="M246.68,186.23c2.36-1.94,4.72-3.88,7.08-5.81-1.17,3.09,.54,4.68,3.13,5.53,5.64,1.85,11.44,2.7,17.72,2.72-1.16-1.36-1.98-2.33-2.81-3.3,7.81,4.5,15.82,3.89,23.93,.96,.95,3.82,3.39,1.17,4.62,.69,27.13-10.56,42.03-31.44,49.48-58.69,1.63-5.97,1.21-12.41,4.3-18.01,2.16,1.5,3.52,3.65,4.77,5.88-3.39,5.67-3.88,12.28-5.99,18.38-5.08,14.66-12.16,27.91-23.48,38.97-10.26,10.02-21.87,17.2-35.72,20.33-13.84,3.13-27.65,2.39-41.09-2.59-2.58-.96-4.65-2.54-5.93-5.05Z" style="fill: #e3e3e3;"/>
  <path d="M212.66,162.45c-.09,3.99,.16,7.95,1.18,11.83-1.54,4.88-6.32,6.06-9.95,8.36-16.15,10.27-33.92,11.55-52.32,8.84-.88-1.79-1.75-3.57-2.63-5.36-.05-.89-.1-1.79-.16-2.68,1.71,3.17,4.8,2.67,7.7,3.2,19.38,3.53,36.58-.82,52.02-13.15,3.05-2.44,3.46-4.84,3.17-8.06,.1-1.07-.08-2.24,.99-2.99Z" style="fill: #e6e6e6;"/>
  <path d="M368.77,135.63c5.19,11.91,4.88,24.4,3.54,36.91-.49,4.54-1.19,9.17-3.41,13.33,.17-8.05,3.28-15.65,3.08-23.88-.21-8.96-1.83-17.61-3.21-26.36Z" style="fill: #dfdfdf;"/>
  <path d="M355.9,209.42c-2.32,4.41-5.67,7.76-10.13,9.99,3.02-3.69,6.24-7.18,10.13-9.99Z" style="fill: #dfdfdf;"/>
  <path d="M364.21,147.03c1.95,3.65,.9,6.24,.18,8.85-.46-2.56-2.16-5.02-.18-8.85Z" style="fill: #dfdfdf;"/>
  <path d="M254.76,334.45c0,6.31-.1,12.62,.05,18.92,.07,2.9-.74,4.41-3.91,4.11-1.81-.17-3.65-.05-5.47-.04-2.31,.01-3.49-1.33-3.26-3.43,1.37-12.57,.51-25.18,.46-37.76-.02-5.35,2.87-4.74,6.27-4.85,3.74-.12,6.37,.07,5.98,5.13-.46,5.94-.11,11.94-.11,17.92Z" style="fill: #f8f8f8;"/>
  <path d="M354.12,110.3c-3.09,5.6-2.66,12.04-4.3,18.01-7.45,27.26-22.35,48.14-49.48,58.69-1.22,.48-3.67,3.13-4.62-.69l7.92-7.12c1.9,2.51,3.6,.38,5.21-.35,5.97-2.72,10.98-7,15.4-11.59,12.22-12.72,19.82-27.86,22.7-45.46,.89-5.45-.5-11.35,2.81-16.38,2.32,.85,3.94,2.33,4.35,4.88Z" style="fill: #e7e7e7;"/>
  <path d="M349.77,105.42c-3.31,5.03-1.92,10.93-2.81,16.38-2.88,17.6-10.48,32.74-22.7,45.46-4.42,4.6-9.43,8.87-15.4,11.59-1.6,.73-3.31,2.86-5.21,.35-.28-1.23,.79-1.85,1.25-2.74,1.65,2.2,3.47,1.25,5.13,.12,14.42-9.8,24.43-22.97,30.72-39.23,3.51-9.07,5.02-18.44,5.75-27.99,.18-2.32,2.51-5.56-1.73-6.91-.29-.79-.58-1.59-.86-2.38,.54,.16,1.09,.33,1.63,.49,1.06,.97,2.12,1.94,3.18,2.91,.35,.65,.71,1.3,1.06,1.95Z" style="fill: #eee;"/>
  <path d="M376.77,188.45c.83-4.65,1.6-9.3,2.53-13.93,.24-1.18,.65-2.22-.53-3.07,0-.33,0-.67,0-1,2.12-5.27,.5-10.76,.98-16.13,.2-2.2-.11-4.32-1.98-5.87h0c.84-5.88-1.44-10.98-4.01-16-1.59-1.3-.74-3.57-1.99-5-1.51-4.48-2.44-9.3-7-12-3.24-5.67-10.41-6.74-14-11.99,4.5-1.53,9.58,1.16,13.08,6.01,7.96,11.05,13.26,23.28,16.12,36.48,2.53,11.7,1.54,23.53-.67,35.21-.47,2.47,.02,5.47-2.52,7.3Z" style="fill: #272727;"/>
  <path d="M377.77,148.45c1.87,1.55,2.18,3.67,1.98,5.87-.48,5.37,1.14,10.86-.98,16.13-1.52-7.28-.35-14.68-1-22Z" style="fill: #272727;"/>
  <path d="M373.76,132.45c2.57,5.02,4.85,10.12,4.01,16-1.66-5.25-3.33-10.5-4.01-16Z" style="fill: #272727;"/>
  <path d="M364.76,115.45c4.56,2.7,5.49,7.52,7,12-3.95-3.06-4.45-8.13-7-12Z" style="fill: #272727;"/>
  <path d="M212.66,162.45c-1.07,.75-.89,1.92-.99,2.99-1.2,2.8-4.19,3.59-6.25,5.43-6.62,5.93-14.59,9.79-23.07,11.95-9.51,2.43-19.23,1.87-28.91-.12-2.52-.52-4.21-1.44-5.7-3.25-.62-2.08-1.23-4.17-1.85-6.25-.33-4.01-.66-8.02-.99-12.03-.04-3.29-.13-6.58-.1-9.86,.01-1.59-.24-3.4,1.85-4.09,.76,9.64-1.31,19.49,1.74,28.92,6.87,.54,12.92,2.9,19.75,2.69,10.73-.33,20.36-2.43,29.32-8.42,7.05-4.72,12.84-10.66,18.41-16.92-1.07,2.99-2.15,5.98-3.22,8.97Z" style="fill: #f4f4f4;"/>
  <path d="M147.74,179.44c1.49,1.81,3.18,2.74,5.7,3.25,9.68,2,19.4,2.55,28.91,.12,8.48-2.16,16.45-6.02,23.07-11.95,2.06-1.84,5.05-2.63,6.25-5.43,.3,3.21-.12,5.62-3.17,8.06-15.44,12.33-32.64,16.68-52.02,13.15-2.9-.53-5.99-.03-7.7-3.2-.32-.36-.65-.72-.97-1.09-.02-.97-.04-1.94-.06-2.92Z" style="fill: #ededed;"/>
  <path d="M426.76,317.46c-.31,3.4-3.15,4.79-6.71,4.92-3.19,.12-5.99-.97-6.21-4.73-.18-3.04,3.94-6.16,7.74-6.2,3.17-.03,5.06,1.89,5.18,6.01Z" style="fill: #767583;"/>
  <path d="M215.88,153.48c-5.57,6.26-11.35,12.21-18.41,16.92-8.96,5.99-18.59,8.09-29.32,8.42-6.84,.21-12.88-2.15-19.75-2.69-3.06-9.43-.98-19.28-1.74-28.92,2.86-26.45,26.08-59.6,62.29-57.7,18.77,.99,32.86,10.59,43.74,25.41,2.16,2.94,4.11,6.03,6.47,9.51,2.32-3.38,4.39-6.46,6.52-9.5,15.82-22.62,42.84-31.37,66.64-21.57,2.43,1,4.79,2.14,7.19,3.22,.47,.5,.93,1,1.4,1.5-1.95,4.72-1.47,9.85-1.92,14.73-1.16,12.59-4.04,24.38-10.93,35.16-5.03,7.87-10.85,14.78-18.93,20.13-.86-4.75,.09-9.36-3.75-12.5-.48-.67-.97-1.33-1.43-2.01-7.34-10.8-20.75-13.88-31.52-7.23-10.76,6.64-14.19,21.05-7.68,32.25-3.76,2.48-6.22,.76-8.17-2.55,4.52-15.3-.57-27.34-13.48-31.85-9.94-3.47-18.74-.48-27.23,9.27Z" style="fill: #fdfdfd;"/>
  <path d="M305.38,155.6c3.84,3.14,2.89,7.75,3.75,12.5,8.08-5.34,13.9-12.26,18.93-20.13,6.89-10.78,9.77-22.57,10.93-35.16,.45-4.88-.03-10,1.92-14.73,1.24,.3,2.23,.98,2.99,1.99,.29,.79,.58,1.59,.86,2.38-.13,29.82-10.57,54.47-35.37,71.77-1.99-.43-1.4-2.22-2.5-2.76,1.35-5.46,.41-10.71-1.53-15.86Z" style="fill: #f6f6f6;"/>
  <path d="M256.58,176.05c1.95,3.31,4.41,5.03,8.17,2.55,2.35,2.25,4.7,4.5,7.05,6.75,.82,.97,1.65,1.94,2.81,3.3-6.27-.02-12.07-.87-17.72-2.72-2.59-.85-4.3-2.43-3.13-5.53,.94-1.45,1.88-2.91,2.83-4.36Z" style="fill: #ececec;"/>
  <path d="M233.73,159.38c-.64,3.06-2.4,4.98-5.49,4.67-3-.3-4.81-2.27-4.47-5.46,.31-2.9,2.15-4.42,5.07-4.31,3.24,.12,4.59,2.17,4.88,5.1Z" style="fill: #f3f3f3;"/>
  <path d="M271.8,185.36c-2.35-2.25-4.7-4.5-7.05-6.75-6.51-11.2-3.08-25.6,7.68-32.25,10.77-6.65,24.17-3.57,31.52,7.23,.46,.68,.95,1.34,1.43,2.01,1.93,5.15,2.88,10.39,1.53,15.86-.67,1.67-1.34,3.34-2,5.01-.46,.89-1.53,1.51-1.25,2.74l-7.92,7.12c-8.11,2.93-16.12,3.54-23.93-.96Zm10.88-26.31c-.52-2.94-2.02-4.9-5.25-4.79-2.92,.1-4.63,1.76-4.72,4.68-.11,3.22,1.83,5.05,4.84,5.12,3.07,.07,4.75-1.94,5.14-5.02Z"/>
  <path d="M304.9,176.46c.67-1.67,1.34-3.34,2-5.01,1.1,.54,.51,2.33,2.5,2.76,24.8-17.3,35.23-41.95,35.37-71.77,4.24,1.35,1.91,4.59,1.73,6.91-.73,9.55-2.24,18.92-5.75,27.99-6.29,16.27-16.3,29.44-30.72,39.23-1.66,1.13-3.48,2.08-5.13-.12Z" style="fill: #efefef;"/>
  <path d="M282.67,159.05c-.39,3.08-2.07,5.09-5.14,5.02-3-.07-4.95-1.91-4.84-5.12,.1-2.92,1.81-4.58,4.72-4.68,3.23-.11,4.73,1.85,5.25,4.79Z" style="fill: #f3f3f3;"/>
</svg>